<svg class="rich-terminal" viewBox="0 0 1360 928.4" xmlns="http://www.w3.org/2000/svg">
    <!-- Generated with Rich https://www.textualize.io -->
    <style>

    @font-face {
        font-family: "Fira Code";
        src: local("FiraCode-Regular"),
                url("https://cdnjs.cloudflare.com/ajax/libs/firacode/6.2.0/woff2/FiraCode-Regular.woff2") format("woff2"),
                url("https://cdnjs.cloudflare.com/ajax/libs/firacode/6.2.0/woff/FiraCode-Regular.woff") format("woff");
        font-style: normal;
        font-weight: 400;
    }
    @font-face {
        font-family: "Fira Code";
        src: local("FiraCode-Bold"),
                url("https://cdnjs.cloudflare.com/ajax/libs/firacode/6.2.0/woff2/FiraCode-Bold.woff2") format("woff2"),
                url("https://cdnjs.cloudflare.com/ajax/libs/firacode/6.2.0/woff/FiraCode-Bold.woff") format("woff");
        font-style: bold;
        font-weight: 700;
    }

    .terminal-1531047631-matrix {
        font-family: Fira Code, monospace;
        font-size: 20px;
        line-height: 24.4px;
        font-variant-east-asian: full-width;
    }

    .terminal-1531047631-title {
        font-size: 18px;
        font-weight: bold;
        font-family: arial;
    }

    .terminal-1531047631-r1 { fill: #c5c8c6 }
.terminal-1531047631-r2 { fill: #0178d4 }
.terminal-1531047631-r3 { fill: #e0e0e0;font-weight: bold }
.terminal-1531047631-r4 { fill: #e0e0e0 }
.terminal-1531047631-r5 { fill: #999999 }
    </style>

    <defs>
    <clipPath id="terminal-1531047631-clip-terminal">
      <rect x="0" y="0" width="1341.0" height="877.4" />
    </clipPath>
    <clipPath id="terminal-1531047631-line-0">
    <rect x="0" y="1.5" width="1342" height="24.65"/>
            </clipPath>
<clipPath id="terminal-1531047631-line-1">
    <rect x="0" y="25.9" width="1342" height="24.65"/>
            </clipPath>
<clipPath id="terminal-1531047631-line-2">
    <rect x="0" y="50.3" width="1342" height="24.65"/>
            </clipPath>
<clipPath id="terminal-1531047631-line-3">
    <rect x="0" y="74.7" width="1342" height="24.65"/>
            </clipPath>
<clipPath id="terminal-1531047631-line-4">
    <rect x="0" y="99.1" width="1342" height="24.65"/>
            </clipPath>
<clipPath id="terminal-1531047631-line-5">
    <rect x="0" y="123.5" width="1342" height="24.65"/>
            </clipPath>
<clipPath id="terminal-1531047631-line-6">
    <rect x="0" y="147.9" width="1342" height="24.65"/>
            </clipPath>
<clipPath id="terminal-1531047631-line-7">
    <rect x="0" y="172.3" width="1342" height="24.65"/>
            </clipPath>
<clipPath id="terminal-1531047631-line-8">
    <rect x="0" y="196.7" width="1342" height="24.65"/>
            </clipPath>
<clipPath id="terminal-1531047631-line-9">
    <rect x="0" y="221.1" width="1342" height="24.65"/>
            </clipPath>
<clipPath id="terminal-1531047631-line-10">
    <rect x="0" y="245.5" width="1342" height="24.65"/>
            </clipPath>
<clipPath id="terminal-1531047631-line-11">
    <rect x="0" y="269.9" width="1342" height="24.65"/>
            </clipPath>
<clipPath id="terminal-1531047631-line-12">
    <rect x="0" y="294.3" width="1342" height="24.65"/>
            </clipPath>
<clipPath id="terminal-1531047631-line-13">
    <rect x="0" y="318.7" width="1342" height="24.65"/>
            </clipPath>
<clipPath id="terminal-1531047631-line-14">
    <rect x="0" y="343.1" width="1342" height="24.65"/>
            </clipPath>
<clipPath id="terminal-1531047631-line-15">
    <rect x="0" y="367.5" width="1342" height="24.65"/>
            </clipPath>
<clipPath id="terminal-1531047631-line-16">
    <rect x="0" y="391.9" width="1342" height="24.65"/>
            </clipPath>
<clipPath id="terminal-1531047631-line-17">
    <rect x="0" y="416.3" width="1342" height="24.65"/>
            </clipPath>
<clipPath id="terminal-1531047631-line-18">
    <rect x="0" y="440.7" width="1342" height="24.65"/>
            </clipPath>
<clipPath id="terminal-1531047631-line-19">
    <rect x="0" y="465.1" width="1342" height="24.65"/>
            </clipPath>
<clipPath id="terminal-1531047631-line-20">
    <rect x="0" y="489.5" width="1342" height="24.65"/>
            </clipPath>
<clipPath id="terminal-1531047631-line-21">
    <rect x="0" y="513.9" width="1342" height="24.65"/>
            </clipPath>
<clipPath id="terminal-1531047631-line-22">
    <rect x="0" y="538.3" width="1342" height="24.65"/>
            </clipPath>
<clipPath id="terminal-1531047631-line-23">
    <rect x="0" y="562.7" width="1342" height="24.65"/>
            </clipPath>
<clipPath id="terminal-1531047631-line-24">
    <rect x="0" y="587.1" width="1342" height="24.65"/>
            </clipPath>
<clipPath id="terminal-1531047631-line-25">
    <rect x="0" y="611.5" width="1342" height="24.65"/>
            </clipPath>
<clipPath id="terminal-1531047631-line-26">
    <rect x="0" y="635.9" width="1342" height="24.65"/>
            </clipPath>
<clipPath id="terminal-1531047631-line-27">
    <rect x="0" y="660.3" width="1342" height="24.65"/>
            </clipPath>
<clipPath id="terminal-1531047631-line-28">
    <rect x="0" y="684.7" width="1342" height="24.65"/>
            </clipPath>
<clipPath id="terminal-1531047631-line-29">
    <rect x="0" y="709.1" width="1342" height="24.65"/>
            </clipPath>
<clipPath id="terminal-1531047631-line-30">
    <rect x="0" y="733.5" width="1342" height="24.65"/>
            </clipPath>
<clipPath id="terminal-1531047631-line-31">
    <rect x="0" y="757.9" width="1342" height="24.65"/>
            </clipPath>
<clipPath id="terminal-1531047631-line-32">
    <rect x="0" y="782.3" width="1342" height="24.65"/>
            </clipPath>
<clipPath id="terminal-1531047631-line-33">
    <rect x="0" y="806.7" width="1342" height="24.65"/>
            </clipPath>
<clipPath id="terminal-1531047631-line-34">
    <rect x="0" y="831.1" width="1342" height="24.65"/>
            </clipPath>
    </defs>

    <rect fill="#292929" stroke="rgba(255,255,255,0.35)" stroke-width="1" x="1" y="1" width="1358" height="926.4" rx="8"/><text class="terminal-1531047631-title" fill="#c5c8c6" text-anchor="middle" x="679" y="27">SecurKitApp</text>
            <g transform="translate(26,22)">
            <circle cx="0" cy="0" r="7" fill="#ff5f57"/>
            <circle cx="22" cy="0" r="7" fill="#febc2e"/>
            <circle cx="44" cy="0" r="7" fill="#28c840"/>
            </g>
        
    <g transform="translate(9, 41)" clip-path="url(#terminal-1531047631-clip-terminal)">
    <rect fill="#121212" x="0" y="1.5" width="1342" height="24.65" shape-rendering="crispEdges"/><rect fill="#121212" x="0" y="25.9" width="1342" height="24.65" shape-rendering="crispEdges"/><rect fill="#121212" x="0" y="50.3" width="122" height="24.65" shape-rendering="crispEdges"/><rect fill="#121212" x="122" y="50.3" width="12.2" height="24.65" shape-rendering="crispEdges"/><rect fill="#121212" x="134.2" y="50.3" width="1073.6" height="24.65" shape-rendering="crispEdges"/><rect fill="#121212" x="1207.8" y="50.3" width="12.2" height="24.65" shape-rendering="crispEdges"/><rect fill="#121212" x="1220" y="50.3" width="122" height="24.65" shape-rendering="crispEdges"/><rect fill="#121212" x="0" y="74.7" width="122" height="24.65" shape-rendering="crispEdges"/><rect fill="#121212" x="122" y="74.7" width="12.2" height="24.65" shape-rendering="crispEdges"/><rect fill="#121212" x="134.2" y="74.7" width="1073.6" height="24.65" shape-rendering="crispEdges"/><rect fill="#121212" x="1207.8" y="74.7" width="12.2" height="24.65" shape-rendering="crispEdges"/><rect fill="#121212" x="1220" y="74.7" width="122" height="24.65" shape-rendering="crispEdges"/><rect fill="#121212" x="0" y="99.1" width="122" height="24.65" shape-rendering="crispEdges"/><rect fill="#121212" x="122" y="99.1" width="12.2" height="24.65" shape-rendering="crispEdges"/><rect fill="#121212" x="134.2" y="99.1" width="24.4" height="24.65" shape-rendering="crispEdges"/><rect fill="#121212" x="158.6" y="99.1" width="97.6" height="24.65" shape-rendering="crispEdges"/><rect fill="#121212" x="256.2" y="99.1" width="36.6" height="24.65" shape-rendering="crispEdges"/><rect fill="#121212" x="292.8" y="99.1" width="219.6" height="24.65" shape-rendering="crispEdges"/><rect fill="#121212" x="512.4" y="99.1" width="671" height="24.65" shape-rendering="crispEdges"/><rect fill="#121212" x="1183.4" y="99.1" width="24.4" height="24.65" shape-rendering="crispEdges"/><rect fill="#121212" x="1207.8" y="99.1" width="12.2" height="24.65" shape-rendering="crispEdges"/><rect fill="#121212" x="1220" y="99.1" width="122" height="24.65" shape-rendering="crispEdges"/><rect fill="#121212" x="0" y="123.5" width="122" height="24.65" shape-rendering="crispEdges"/><rect fill="#121212" x="122" y="123.5" width="12.2" height="24.65" shape-rendering="crispEdges"/><rect fill="#121212" x="134.2" y="123.5" width="24.4" height="24.65" shape-rendering="crispEdges"/><rect fill="#121212" x="158.6" y="123.5" width="1024.8" height="24.65" shape-rendering="crispEdges"/><rect fill="#121212" x="1183.4" y="123.5" width="24.4" height="24.65" shape-rendering="crispEdges"/><rect fill="#121212" x="1207.8" y="123.5" width="12.2" height="24.65" shape-rendering="crispEdges"/><rect fill="#121212" x="1220" y="123.5" width="122" height="24.65" shape-rendering="crispEdges"/><rect fill="#121212" x="0" y="147.9" width="122" height="24.65" shape-rendering="crispEdges"/><rect fill="#121212" x="122" y="147.9" width="12.2" height="24.65" shape-rendering="crispEdges"/><rect fill="#121212" x="134.2" y="147.9" width="24.4" height="24.65" shape-rendering="crispEdges"/><rect fill="#121212" x="158.6" y="147.9" width="244" height="24.65" shape-rendering="crispEdges"/><rect fill="#121212" x="402.6" y="147.9" width="780.8" height="24.65" shape-rendering="crispEdges"/><rect fill="#121212" x="1183.4" y="147.9" width="24.4" height="24.65" shape-rendering="crispEdges"/><rect fill="#121212" x="1207.8" y="147.9" width="12.2" height="24.65" shape-rendering="crispEdges"/><rect fill="#121212" x="1220" y="147.9" width="122" height="24.65" shape-rendering="crispEdges"/><rect fill="#121212" x="0" y="172.3" width="122" height="24.65" shape-rendering="crispEdges"/><rect fill="#121212" x="122" y="172.3" width="12.2" height="24.65" shape-rendering="crispEdges"/><rect fill="#121212" x="134.2" y="172.3" width="24.4" height="24.65" shape-rendering="crispEdges"/><rect fill="#121212" x="158.6" y="172.3" width="0" height="24.65" shape-rendering="crispEdges"/><rect fill="#121212" x="158.6" y="172.3" width="1024.8" height="24.65" shape-rendering="crispEdges"/><rect fill="#121212" x="1183.4" y="172.3" width="24.4" height="24.65" shape-rendering="crispEdges"/><rect fill="#121212" x="1207.8" y="172.3" width="12.2" height="24.65" shape-rendering="crispEdges"/><rect fill="#121212" x="1220" y="172.3" width="122" height="24.65" shape-rendering="crispEdges"/><rect fill="#121212" x="0" y="196.7" width="122" height="24.65" shape-rendering="crispEdges"/><rect fill="#121212" x="122" y="196.7" width="12.2" height="24.65" shape-rendering="crispEdges"/><rect fill="#121212" x="134.2" y="196.7" width="24.4" height="24.65" shape-rendering="crispEdges"/><rect fill="#121212" x="158.6" y="196.7" width="939.4" height="24.65" shape-rendering="crispEdges"/><rect fill="#121212" x="1098" y="196.7" width="85.4" height="24.65" shape-rendering="crispEdges"/><rect fill="#121212" x="1183.4" y="196.7" width="24.4" height="24.65" shape-rendering="crispEdges"/><rect fill="#121212" x="1207.8" y="196.7" width="12.2" height="24.65" shape-rendering="crispEdges"/><rect fill="#121212" x="1220" y="196.7" width="122" height="24.65" shape-rendering="crispEdges"/><rect fill="#121212" x="0" y="221.1" width="122" height="24.65" shape-rendering="crispEdges"/><rect fill="#121212" x="122" y="221.1" width="12.2" height="24.65" shape-rendering="crispEdges"/><rect fill="#121212" x="134.2" y="221.1" width="24.4" height="24.65" shape-rendering="crispEdges"/><rect fill="#121212" x="158.6" y="221.1" width="951.6" height="24.65" shape-rendering="crispEdges"/><rect fill="#121212" x="1110.2" y="221.1" width="73.2" height="24.65" shape-rendering="crispEdges"/><rect fill="#121212" x="1183.4" y="221.1" width="24.4" height="24.65" shape-rendering="crispEdges"/><rect fill="#121212" x="1207.8" y="221.1" width="12.2" height="24.65" shape-rendering="crispEdges"/><rect fill="#121212" x="1220" y="221.1" width="122" height="24.65" shape-rendering="crispEdges"/><rect fill="#121212" x="0" y="245.5" width="122" height="24.65" shape-rendering="crispEdges"/><rect fill="#121212" x="122" y="245.5" width="12.2" height="24.65" shape-rendering="crispEdges"/><rect fill="#121212" x="134.2" y="245.5" width="24.4" height="24.65" shape-rendering="crispEdges"/><rect fill="#121212" x="158.6" y="245.5" width="927.2" height="24.65" shape-rendering="crispEdges"/><rect fill="#121212" x="1085.8" y="245.5" width="97.6" height="24.65" shape-rendering="crispEdges"/><rect fill="#121212" x="1183.4" y="245.5" width="24.4" height="24.65" shape-rendering="crispEdges"/><rect fill="#121212" x="1207.8" y="245.5" width="12.2" height="24.65" shape-rendering="crispEdges"/><rect fill="#121212" x="1220" y="245.5" width="122" height="24.65" shape-rendering="crispEdges"/><rect fill="#121212" x="0" y="269.9" width="122" height="24.65" shape-rendering="crispEdges"/><rect fill="#121212" x="122" y="269.9" width="12.2" height="24.65" shape-rendering="crispEdges"/><rect fill="#121212" x="134.2" y="269.9" width="24.4" height="24.65" shape-rendering="crispEdges"/><rect fill="#121212" x="158.6" y="269.9" width="902.8" height="24.65" shape-rendering="crispEdges"/><rect fill="#121212" x="1061.4" y="269.9" width="122" height="24.65" shape-rendering="crispEdges"/><rect fill="#121212" x="1183.4" y="269.9" width="24.4" height="24.65" shape-rendering="crispEdges"/><rect fill="#121212" x="1207.8" y="269.9" width="12.2" height="24.65" shape-rendering="crispEdges"/><rect fill="#121212" x="1220" y="269.9" width="122" height="24.65" shape-rendering="crispEdges"/><rect fill="#121212" x="0" y="294.3" width="122" height="24.65" shape-rendering="crispEdges"/><rect fill="#121212" x="122" y="294.3" width="12.2" height="24.65" shape-rendering="crispEdges"/><rect fill="#121212" x="134.2" y="294.3" width="24.4" height="24.65" shape-rendering="crispEdges"/><rect fill="#121212" x="158.6" y="294.3" width="0" height="24.65" shape-rendering="crispEdges"/><rect fill="#121212" x="158.6" y="294.3" width="1024.8" height="24.65" shape-rendering="crispEdges"/><rect fill="#121212" x="1183.4" y="294.3" width="24.4" height="24.65" shape-rendering="crispEdges"/><rect fill="#121212" x="1207.8" y="294.3" width="12.2" height="24.65" shape-rendering="crispEdges"/><rect fill="#121212" x="1220" y="294.3" width="122" height="24.65" shape-rendering="crispEdges"/><rect fill="#121212" x="0" y="318.7" width="122" height="24.65" shape-rendering="crispEdges"/><rect fill="#121212" x="122" y="318.7" width="12.2" height="24.65" shape-rendering="crispEdges"/><rect fill="#121212" x="134.2" y="318.7" width="24.4" height="24.65" shape-rendering="crispEdges"/><rect fill="#121212" x="158.6" y="318.7" width="341.6" height="24.65" shape-rendering="crispEdges"/><rect fill="#121212" x="500.2" y="318.7" width="683.2" height="24.65" shape-rendering="crispEdges"/><rect fill="#121212" x="1183.4" y="318.7" width="24.4" height="24.65" shape-rendering="crispEdges"/><rect fill="#121212" x="1207.8" y="318.7" width="12.2" height="24.65" shape-rendering="crispEdges"/><rect fill="#121212" x="1220" y="318.7" width="122" height="24.65" shape-rendering="crispEdges"/><rect fill="#121212" x="0" y="343.1" width="122" height="24.65" shape-rendering="crispEdges"/><rect fill="#121212" x="122" y="343.1" width="12.2" height="24.65" shape-rendering="crispEdges"/><rect fill="#121212" x="134.2" y="343.1" width="24.4" height="24.65" shape-rendering="crispEdges"/><rect fill="#121212" x="158.6" y="343.1" width="0" height="24.65" shape-rendering="crispEdges"/><rect fill="#121212" x="158.6" y="343.1" width="1024.8" height="24.65" shape-rendering="crispEdges"/><rect fill="#121212" x="1183.4" y="343.1" width="24.4" height="24.65" shape-rendering="crispEdges"/><rect fill="#121212" x="1207.8" y="343.1" width="12.2" height="24.65" shape-rendering="crispEdges"/><rect fill="#121212" x="1220" y="343.1" width="122" height="24.65" shape-rendering="crispEdges"/><rect fill="#121212" x="0" y="367.5" width="122" height="24.65" shape-rendering="crispEdges"/><rect fill="#121212" x="122" y="367.5" width="12.2" height="24.65" shape-rendering="crispEdges"/><rect fill="#121212" x="134.2" y="367.5" width="24.4" height="24.65" shape-rendering="crispEdges"/><rect fill="#121212" x="158.6" y="367.5" width="280.6" height="24.65" shape-rendering="crispEdges"/><rect fill="#121212" x="439.2" y="367.5" width="744.2" height="24.65" shape-rendering="crispEdges"/><rect fill="#121212" x="1183.4" y="367.5" width="24.4" height="24.65" shape-rendering="crispEdges"/><rect fill="#121212" x="1207.8" y="367.5" width="12.2" height="24.65" shape-rendering="crispEdges"/><rect fill="#121212" x="1220" y="367.5" width="122" height="24.65" shape-rendering="crispEdges"/><rect fill="#121212" x="0" y="391.9" width="122" height="24.65" shape-rendering="crispEdges"/><rect fill="#121212" x="122" y="391.9" width="12.2" height="24.65" shape-rendering="crispEdges"/><rect fill="#121212" x="134.2" y="391.9" width="24.4" height="24.65" shape-rendering="crispEdges"/><rect fill="#121212" x="158.6" y="391.9" width="902.8" height="24.65" shape-rendering="crispEdges"/><rect fill="#121212" x="1061.4" y="391.9" width="122" height="24.65" shape-rendering="crispEdges"/><rect fill="#121212" x="1183.4" y="391.9" width="24.4" height="24.65" shape-rendering="crispEdges"/><rect fill="#121212" x="1207.8" y="391.9" width="12.2" height="24.65" shape-rendering="crispEdges"/><rect fill="#121212" x="1220" y="391.9" width="122" height="24.65" shape-rendering="crispEdges"/><rect fill="#121212" x="0" y="416.3" width="122" height="24.65" shape-rendering="crispEdges"/><rect fill="#121212" x="122" y="416.3" width="12.2" height="24.65" shape-rendering="crispEdges"/><rect fill="#121212" x="134.2" y="416.3" width="24.4" height="24.65" shape-rendering="crispEdges"/><rect fill="#121212" x="158.6" y="416.3" width="878.4" height="24.65" shape-rendering="crispEdges"/><rect fill="#121212" x="1037" y="416.3" width="146.4" height="24.65" shape-rendering="crispEdges"/><rect fill="#121212" x="1183.4" y="416.3" width="24.4" height="24.65" shape-rendering="crispEdges"/><rect fill="#121212" x="1207.8" y="416.3" width="12.2" height="24.65" shape-rendering="crispEdges"/><rect fill="#121212" x="1220" y="416.3" width="122" height="24.65" shape-rendering="crispEdges"/><rect fill="#121212" x="0" y="440.7" width="122" height="24.65" shape-rendering="crispEdges"/><rect fill="#121212" x="122" y="440.7" width="12.2" height="24.65" shape-rendering="crispEdges"/><rect fill="#121212" x="134.2" y="440.7" width="24.4" height="24.65" shape-rendering="crispEdges"/><rect fill="#121212" x="158.6" y="440.7" width="829.6" height="24.65" shape-rendering="crispEdges"/><rect fill="#121212" x="988.2" y="440.7" width="195.2" height="24.65" shape-rendering="crispEdges"/><rect fill="#121212" x="1183.4" y="440.7" width="24.4" height="24.65" shape-rendering="crispEdges"/><rect fill="#121212" x="1207.8" y="440.7" width="12.2" height="24.65" shape-rendering="crispEdges"/><rect fill="#121212" x="1220" y="440.7" width="122" height="24.65" shape-rendering="crispEdges"/><rect fill="#121212" x="0" y="465.1" width="122" height="24.65" shape-rendering="crispEdges"/><rect fill="#121212" x="122" y="465.1" width="12.2" height="24.65" shape-rendering="crispEdges"/><rect fill="#121212" x="134.2" y="465.1" width="24.4" height="24.65" shape-rendering="crispEdges"/><rect fill="#121212" x="158.6" y="465.1" width="268.4" height="24.65" shape-rendering="crispEdges"/><rect fill="#121212" x="427" y="465.1" width="61" height="24.65" shape-rendering="crispEdges"/><rect fill="#121212" x="488" y="465.1" width="512.4" height="24.65" shape-rendering="crispEdges"/><rect fill="#121212" x="1000.4" y="465.1" width="183" height="24.65" shape-rendering="crispEdges"/><rect fill="#121212" x="1183.4" y="465.1" width="24.4" height="24.65" shape-rendering="crispEdges"/><rect fill="#121212" x="1207.8" y="465.1" width="12.2" height="24.65" shape-rendering="crispEdges"/><rect fill="#121212" x="1220" y="465.1" width="122" height="24.65" shape-rendering="crispEdges"/><rect fill="#121212" x="0" y="489.5" width="122" height="24.65" shape-rendering="crispEdges"/><rect fill="#121212" x="122" y="489.5" width="12.2" height="24.65" shape-rendering="crispEdges"/><rect fill="#121212" x="134.2" y="489.5" width="24.4" height="24.65" shape-rendering="crispEdges"/><rect fill="#121212" x="158.6" y="489.5" width="585.6" height="24.65" shape-rendering="crispEdges"/><rect fill="#121212" x="744.2" y="489.5" width="439.2" height="24.65" shape-rendering="crispEdges"/><rect fill="#121212" x="1183.4" y="489.5" width="24.4" height="24.65" shape-rendering="crispEdges"/><rect fill="#121212" x="1207.8" y="489.5" width="12.2" height="24.65" shape-rendering="crispEdges"/><rect fill="#121212" x="1220" y="489.5" width="122" height="24.65" shape-rendering="crispEdges"/><rect fill="#121212" x="0" y="513.9" width="122" height="24.65" shape-rendering="crispEdges"/><rect fill="#121212" x="122" y="513.9" width="12.2" height="24.65" shape-rendering="crispEdges"/><rect fill="#121212" x="134.2" y="513.9" width="24.4" height="24.65" shape-rendering="crispEdges"/><rect fill="#121212" x="158.6" y="513.9" width="0" height="24.65" shape-rendering="crispEdges"/><rect fill="#121212" x="158.6" y="513.9" width="1024.8" height="24.65" shape-rendering="crispEdges"/><rect fill="#121212" x="1183.4" y="513.9" width="24.4" height="24.65" shape-rendering="crispEdges"/><rect fill="#121212" x="1207.8" y="513.9" width="12.2" height="24.65" shape-rendering="crispEdges"/><rect fill="#121212" x="1220" y="513.9" width="122" height="24.65" shape-rendering="crispEdges"/><rect fill="#121212" x="0" y="538.3" width="122" height="24.65" shape-rendering="crispEdges"/><rect fill="#121212" x="122" y="538.3" width="12.2" height="24.65" shape-rendering="crispEdges"/><rect fill="#121212" x="134.2" y="538.3" width="24.4" height="24.65" shape-rendering="crispEdges"/><rect fill="#ff0000" x="158.6" y="538.3" width="341.6" height="24.65" shape-rendering="crispEdges"/><rect fill="#121212" x="500.2" y="538.3" width="683.2" height="24.65" shape-rendering="crispEdges"/><rect fill="#121212" x="1183.4" y="538.3" width="24.4" height="24.65" shape-rendering="crispEdges"/><rect fill="#121212" x="1207.8" y="538.3" width="12.2" height="24.65" shape-rendering="crispEdges"/><rect fill="#121212" x="1220" y="538.3" width="122" height="24.65" shape-rendering="crispEdges"/><rect fill="#121212" x="0" y="562.7" width="122" height="24.65" shape-rendering="crispEdges"/><rect fill="#121212" x="122" y="562.7" width="12.2" height="24.65" shape-rendering="crispEdges"/><rect fill="#121212" x="134.2" y="562.7" width="24.4" height="24.65" shape-rendering="crispEdges"/><rect fill="#121212" x="158.6" y="562.7" width="0" height="24.65" shape-rendering="crispEdges"/><rect fill="#121212" x="158.6" y="562.7" width="1024.8" height="24.65" shape-rendering="crispEdges"/><rect fill="#121212" x="1183.4" y="562.7" width="24.4" height="24.65" shape-rendering="crispEdges"/><rect fill="#121212" x="1207.8" y="562.7" width="12.2" height="24.65" shape-rendering="crispEdges"/><rect fill="#121212" x="1220" y="562.7" width="122" height="24.65" shape-rendering="crispEdges"/><rect fill="#121212" x="0" y="587.1" width="122" height="24.65" shape-rendering="crispEdges"/><rect fill="#121212" x="122" y="587.1" width="12.2" height="24.65" shape-rendering="crispEdges"/><rect fill="#121212" x="134.2" y="587.1" width="24.4" height="24.65" shape-rendering="crispEdges"/><rect fill="#121212" x="158.6" y="587.1" width="378.2" height="24.65" shape-rendering="crispEdges"/><rect fill="#121212" x="536.8" y="587.1" width="73.2" height="24.65" shape-rendering="crispEdges"/><rect fill="#121212" x="610" y="587.1" width="414.8" height="24.65" shape-rendering="crispEdges"/><rect fill="#121212" x="1024.8" y="587.1" width="158.6" height="24.65" shape-rendering="crispEdges"/><rect fill="#121212" x="1183.4" y="587.1" width="24.4" height="24.65" shape-rendering="crispEdges"/><rect fill="#121212" x="1207.8" y="587.1" width="12.2" height="24.65" shape-rendering="crispEdges"/><rect fill="#121212" x="1220" y="587.1" width="122" height="24.65" shape-rendering="crispEdges"/><rect fill="#121212" x="0" y="611.5" width="122" height="24.65" shape-rendering="crispEdges"/><rect fill="#121212" x="122" y="611.5" width="12.2" height="24.65" shape-rendering="crispEdges"/><rect fill="#121212" x="134.2" y="611.5" width="24.4" height="24.65" shape-rendering="crispEdges"/><rect fill="#121212" x="158.6" y="611.5" width="915" height="24.65" shape-rendering="crispEdges"/><rect fill="#121212" x="1073.6" y="611.5" width="109.8" height="24.65" shape-rendering="crispEdges"/><rect fill="#121212" x="1183.4" y="611.5" width="24.4" height="24.65" shape-rendering="crispEdges"/><rect fill="#121212" x="1207.8" y="611.5" width="12.2" height="24.65" shape-rendering="crispEdges"/><rect fill="#121212" x="1220" y="611.5" width="122" height="24.65" shape-rendering="crispEdges"/><rect fill="#121212" x="0" y="635.9" width="122" height="24.65" shape-rendering="crispEdges"/><rect fill="#121212" x="122" y="635.9" width="12.2" height="24.65" shape-rendering="crispEdges"/><rect fill="#121212" x="134.2" y="635.9" width="24.4" height="24.65" shape-rendering="crispEdges"/><rect fill="#121212" x="158.6" y="635.9" width="927.2" height="24.65" shape-rendering="crispEdges"/><rect fill="#121212" x="1085.8" y="635.9" width="97.6" height="24.65" shape-rendering="crispEdges"/><rect fill="#121212" x="1183.4" y="635.9" width="24.4" height="24.65" shape-rendering="crispEdges"/><rect fill="#121212" x="1207.8" y="635.9" width="12.2" height="24.65" shape-rendering="crispEdges"/><rect fill="#121212" x="1220" y="635.9" width="122" height="24.65" shape-rendering="crispEdges"/><rect fill="#121212" x="0" y="660.3" width="122" height="24.65" shape-rendering="crispEdges"/><rect fill="#121212" x="122" y="660.3" width="12.2" height="24.65" shape-rendering="crispEdges"/><rect fill="#121212" x="134.2" y="660.3" width="24.4" height="24.65" shape-rendering="crispEdges"/><rect fill="#121212" x="158.6" y="660.3" width="915" height="24.65" shape-rendering="crispEdges"/><rect fill="#121212" x="1073.6" y="660.3" width="109.8" height="24.65" shape-rendering="crispEdges"/><rect fill="#121212" x="1183.4" y="660.3" width="24.4" height="24.65" shape-rendering="crispEdges"/><rect fill="#121212" x="1207.8" y="660.3" width="12.2" height="24.65" shape-rendering="crispEdges"/><rect fill="#121212" x="1220" y="660.3" width="122" height="24.65" shape-rendering="crispEdges"/><rect fill="#121212" x="0" y="684.7" width="122" height="24.65" shape-rendering="crispEdges"/><rect fill="#121212" x="122" y="684.7" width="12.2" height="24.65" shape-rendering="crispEdges"/><rect fill="#121212" x="134.2" y="684.7" width="24.4" height="24.65" shape-rendering="crispEdges"/><rect fill="#121212" x="158.6" y="684.7" width="158.6" height="24.65" shape-rendering="crispEdges"/><rect fill="#121212" x="317.2" y="684.7" width="866.2" height="24.65" shape-rendering="crispEdges"/><rect fill="#121212" x="1183.4" y="684.7" width="24.4" height="24.65" shape-rendering="crispEdges"/><rect fill="#121212" x="1207.8" y="684.7" width="12.2" height="24.65" shape-rendering="crispEdges"/><rect fill="#121212" x="1220" y="684.7" width="122" height="24.65" shape-rendering="crispEdges"/><rect fill="#121212" x="0" y="709.1" width="122" height="24.65" shape-rendering="crispEdges"/><rect fill="#121212" x="122" y="709.1" width="12.2" height="24.65" shape-rendering="crispEdges"/><rect fill="#121212" x="134.2" y="709.1" width="24.4" height="24.65" shape-rendering="crispEdges"/><rect fill="#121212" x="158.6" y="709.1" width="0" height="24.65" shape-rendering="crispEdges"/><rect fill="#121212" x="158.6" y="709.1" width="1024.8" height="24.65" shape-rendering="crispEdges"/><rect fill="#121212" x="1183.4" y="709.1" width="24.4" height="24.65" shape-rendering="crispEdges"/><rect fill="#121212" x="1207.8" y="709.1" width="12.2" height="24.65" shape-rendering="crispEdges"/><rect fill="#121212" x="1220" y="709.1" width="122" height="24.65" shape-rendering="crispEdges"/><rect fill="#121212" x="0" y="733.5" width="122" height="24.65" shape-rendering="crispEdges"/><rect fill="#121212" x="122" y="733.5" width="12.2" height="24.65" shape-rendering="crispEdges"/><rect fill="#121212" x="134.2" y="733.5" width="24.4" height="24.65" shape-rendering="crispEdges"/><rect fill="#121212" x="158.6" y="733.5" width="317.2" height="24.65" shape-rendering="crispEdges"/><rect fill="#121212" x="475.8" y="733.5" width="707.6" height="24.65" shape-rendering="crispEdges"/><rect fill="#121212" x="1183.4" y="733.5" width="24.4" height="24.65" shape-rendering="crispEdges"/><rect fill="#121212" x="1207.8" y="733.5" width="12.2" height="24.65" shape-rendering="crispEdges"/><rect fill="#121212" x="1220" y="733.5" width="122" height="24.65" shape-rendering="crispEdges"/><rect fill="#121212" x="0" y="757.9" width="122" height="24.65" shape-rendering="crispEdges"/><rect fill="#121212" x="122" y="757.9" width="12.2" height="24.65" shape-rendering="crispEdges"/><rect fill="#121212" x="134.2" y="757.9" width="24.4" height="24.65" shape-rendering="crispEdges"/><rect fill="#121212" x="158.6" y="757.9" width="0" height="24.65" shape-rendering="crispEdges"/><rect fill="#121212" x="158.6" y="757.9" width="1024.8" height="24.65" shape-rendering="crispEdges"/><rect fill="#121212" x="1183.4" y="757.9" width="24.4" height="24.65" shape-rendering="crispEdges"/><rect fill="#121212" x="1207.8" y="757.9" width="12.2" height="24.65" shape-rendering="crispEdges"/><rect fill="#121212" x="1220" y="757.9" width="122" height="24.65" shape-rendering="crispEdges"/><rect fill="#121212" x="0" y="782.3" width="122" height="24.65" shape-rendering="crispEdges"/><rect fill="#121212" x="122" y="782.3" width="12.2" height="24.65" shape-rendering="crispEdges"/><rect fill="#121212" x="134.2" y="782.3" width="1073.6" height="24.65" shape-rendering="crispEdges"/><rect fill="#121212" x="1207.8" y="782.3" width="12.2" height="24.65" shape-rendering="crispEdges"/><rect fill="#121212" x="1220" y="782.3" width="122" height="24.65" shape-rendering="crispEdges"/><rect fill="#121212" x="0" y="806.7" width="122" height="24.65" shape-rendering="crispEdges"/><rect fill="#121212" x="122" y="806.7" width="12.2" height="24.65" shape-rendering="crispEdges"/><rect fill="#121212" x="134.2" y="806.7" width="1073.6" height="24.65" shape-rendering="crispEdges"/><rect fill="#121212" x="1207.8" y="806.7" width="12.2" height="24.65" shape-rendering="crispEdges"/><rect fill="#121212" x="1220" y="806.7" width="122" height="24.65" shape-rendering="crispEdges"/><rect fill="#121212" x="0" y="831.1" width="1342" height="24.65" shape-rendering="crispEdges"/><rect fill="#121212" x="0" y="855.5" width="1342" height="24.65" shape-rendering="crispEdges"/>
    <g class="terminal-1531047631-matrix">
    <text class="terminal-1531047631-r1" x="1342" y="20" textLength="12.2" clip-path="url(#terminal-1531047631-line-0)">
</text><text class="terminal-1531047631-r1" x="1342" y="44.4" textLength="12.2" clip-path="url(#terminal-1531047631-line-1)">
</text><text class="terminal-1531047631-r2" x="122" y="68.8" textLength="12.2" clip-path="url(#terminal-1531047631-line-2)">╭</text><text class="terminal-1531047631-r2" x="134.2" y="68.8" textLength="1073.6" clip-path="url(#terminal-1531047631-line-2)">────────────────────────────────────────────────────────────────────────────────────────</text><text class="terminal-1531047631-r2" x="1207.8" y="68.8" textLength="12.2" clip-path="url(#terminal-1531047631-line-2)">╮</text><text class="terminal-1531047631-r1" x="1342" y="68.8" textLength="12.2" clip-path="url(#terminal-1531047631-line-2)">
</text><text class="terminal-1531047631-r2" x="122" y="93.2" textLength="12.2" clip-path="url(#terminal-1531047631-line-3)">│</text><text class="terminal-1531047631-r2" x="1207.8" y="93.2" textLength="12.2" clip-path="url(#terminal-1531047631-line-3)">│</text><text class="terminal-1531047631-r1" x="1342" y="93.2" textLength="12.2" clip-path="url(#terminal-1531047631-line-3)">
</text><text class="terminal-1531047631-r2" x="122" y="117.6" textLength="12.2" clip-path="url(#terminal-1531047631-line-4)">│</text><text class="terminal-1531047631-r3" x="158.6" y="117.6" textLength="97.6" clip-path="url(#terminal-1531047631-line-4)">SecurKit</text><text class="terminal-1531047631-r5" x="292.8" y="117.6" textLength="219.6" clip-path="url(#terminal-1531047631-line-4)">first-run&#160;briefing</text><text class="terminal-1531047631-r2" x="1207.8" y="117.6" textLength="12.2" clip-path="url(#terminal-1531047631-line-4)">│</text><text class="terminal-1531047631-r1" x="1342" y="117.6" textLength="12.2" clip-path="url(#terminal-1531047631-line-4)">
</text><text class="terminal-1531047631-r2" x="122" y="142" textLength="12.2" clip-path="url(#terminal-1531047631-line-5)">│</text><text class="terminal-1531047631-r2" x="1207.8" y="142" textLength="12.2" clip-path="url(#terminal-1531047631-line-5)">│</text><text class="terminal-1531047631-r1" x="1342" y="142" textLength="12.2" clip-path="url(#terminal-1531047631-line-5)">
</text><text class="terminal-1531047631-r2" x="122" y="166.4" textLength="12.2" clip-path="url(#terminal-1531047631-line-6)">│</text><text class="terminal-1531047631-r3" x="158.6" y="166.4" textLength="244" clip-path="url(#terminal-1531047631-line-6)">Welcome&#160;to&#160;SecurKit.</text><text class="terminal-1531047631-r2" x="1207.8" y="166.4" textLength="12.2" clip-path="url(#terminal-1531047631-line-6)">│</text><text class="terminal-1531047631-r1" x="1342" y="166.4" textLength="12.2" clip-path="url(#terminal-1531047631-line-6)">
</text><text class="terminal-1531047631-r2" x="122" y="190.8" textLength="12.2" clip-path="url(#terminal-1531047631-line-7)">│</text><text class="terminal-1531047631-r2" x="1207.8" y="190.8" textLength="12.2" clip-path="url(#terminal-1531047631-line-7)">│</text><text class="terminal-1531047631-r1" x="1342" y="190.8" textLength="12.2" clip-path="url(#terminal-1531047631-line-7)">
</text><text class="terminal-1531047631-r2" x="122" y="215.2" textLength="12.2" clip-path="url(#terminal-1531047631-line-8)">│</text><text class="terminal-1531047631-r4" x="158.6" y="215.2" textLength="939.4" clip-path="url(#terminal-1531047631-line-8)">This&#160;tool&#160;helps&#160;you&#160;bundle&#160;up&#160;a&#160;folder&#160;of&#160;evidence&#160;into&#160;a&#160;single,&#160;locked&#160;file</text><text class="terminal-1531047631-r2" x="1207.8" y="215.2" textLength="12.2" clip-path="url(#terminal-1531047631-line-8)">│</text><text class="terminal-1531047631-r1" x="1342" y="215.2" textLength="12.2" clip-path="url(#terminal-1531047631-line-8)">
</text><text class="terminal-1531047631-r2" x="122" y="239.6" textLength="12.2" clip-path="url(#terminal-1531047631-line-9)">│</text><text class="terminal-1531047631-r4" x="158.6" y="239.6" textLength="951.6" clip-path="url(#terminal-1531047631-line-9)">that&#160;only&#160;you&#160;(and&#160;people&#160;you&#160;give&#160;the&#160;passphrase&#160;to)&#160;can&#160;open.&#160;It&#160;also&#160;points</text><text class="terminal-1531047631-r2" x="1207.8" y="239.6" textLength="12.2" clip-path="url(#terminal-1531047631-line-9)">│</text><text class="terminal-1531047631-r1" x="1342" y="239.6" textLength="12.2" clip-path="url(#terminal-1531047631-line-9)">
</text><text class="terminal-1531047631-r2" x="122" y="264" textLength="12.2" clip-path="url(#terminal-1531047631-line-10)">│</text><text class="terminal-1531047631-r4" x="158.6" y="264" textLength="927.2" clip-path="url(#terminal-1531047631-line-10)">you&#160;at&#160;legitimate&#160;places&#160;to&#160;send&#160;what&#160;you&#x27;ve&#160;gathered&#160;—&#160;government&#160;regulator</text><text class="terminal-1531047631-r2" x="1207.8" y="264" textLength="12.2" clip-path="url(#terminal-1531047631-line-10)">│</text><text class="terminal-1531047631-r1" x="1342" y="264" textLength="12.2" clip-path="url(#terminal-1531047631-line-10)">
</text><text class="terminal-1531047631-r2" x="122" y="288.4" textLength="12.2" clip-path="url(#terminal-1531047631-line-11)">│</text><text class="terminal-1531047631-r4" x="158.6" y="288.4" textLength="902.8" clip-path="url(#terminal-1531047631-line-11)">hotlines,&#160;inspectors&#160;general,&#160;and&#160;a&#160;few&#160;trusted&#160;journalism&#160;intake&#160;portals.</text><text class="terminal-1531047631-r2" x="1207.8" y="288.4" textLength="12.2" clip-path="url(#terminal-1531047631-line-11)">│</text><text class="terminal-1531047631-r1" x="1342" y="288.4" textLength="12.2" clip-path="url(#terminal-1531047631-line-11)">
</text><text class="terminal-1531047631-r2" x="122" y="312.8" textLength="12.2" clip-path="url(#terminal-1531047631-line-12)">│</text><text class="terminal-1531047631-r2" x="1207.8" y="312.8" textLength="12.2" clip-path="url(#terminal-1531047631-line-12)">│</text><text class="terminal-1531047631-r1" x="1342" y="312.8" textLength="12.2" clip-path="url(#terminal-1531047631-line-12)">
</text><text class="terminal-1531047631-r2" x="122" y="337.2" textLength="12.2" clip-path="url(#terminal-1531047631-line-13)">│</text><text class="terminal-1531047631-r3" x="158.6" y="337.2" textLength="341.6" clip-path="url(#terminal-1531047631-line-13)">How&#160;it&#160;works&#160;in&#160;plain&#160;terms:</text><text class="terminal-1531047631-r2" x="1207.8" y="337.2" textLength="12.2" clip-path="url(#terminal-1531047631-line-13)">│</text><text class="terminal-1531047631-r1" x="1342" y="337.2" textLength="12.2" clip-path="url(#terminal-1531047631-line-13)">
</text><text class="terminal-1531047631-r2" x="122" y="361.6" textLength="12.2" clip-path="url(#terminal-1531047631-line-14)">│</text><text class="terminal-1531047631-r2" x="1207.8" y="361.6" textLength="12.2" clip-path="url(#terminal-1531047631-line-14)">│</text><text class="terminal-1531047631-r1" x="1342" y="361.6" textLength="12.2" clip-path="url(#terminal-1531047631-line-14)">
</text><text class="terminal-1531047631-r2" x="122" y="386" textLength="12.2" clip-path="url(#terminal-1531047631-line-15)">│</text><text class="terminal-1531047631-r4" x="158.6" y="386" textLength="280.6" clip-path="url(#terminal-1531047631-line-15)">&#160;&#160;1.&#160;You&#160;pick&#160;a&#160;folder.</text><text class="terminal-1531047631-r2" x="1207.8" y="386" textLength="12.2" clip-path="url(#terminal-1531047631-line-15)">│</text><text class="terminal-1531047631-r1" x="1342" y="386" textLength="12.2" clip-path="url(#terminal-1531047631-line-15)">
</text><text class="terminal-1531047631-r2" x="122" y="410.4" textLength="12.2" clip-path="url(#terminal-1531047631-line-16)">│</text><text class="terminal-1531047631-r4" x="158.6" y="410.4" textLength="902.8" clip-path="url(#terminal-1531047631-line-16)">&#160;&#160;2.&#160;SecurKit&#160;removes&#160;identifying&#160;metadata&#160;from&#160;your&#160;files&#160;(EXIF,&#160;document</text><text class="terminal-1531047631-r2" x="1207.8" y="410.4" textLength="12.2" clip-path="url(#terminal-1531047631-line-16)">│</text><text class="terminal-1531047631-r1" x="1342" y="410.4" textLength="12.2" clip-path="url(#terminal-1531047631-line-16)">
</text><text class="terminal-1531047631-r2" x="122" y="434.8" textLength="12.2" clip-path="url(#terminal-1531047631-line-17)">│</text><text class="terminal-1531047631-r4" x="158.6" y="434.8" textLength="878.4" clip-path="url(#terminal-1531047631-line-17)">&#160;&#160;&#160;&#160;&#160;properties,&#160;timestamps),&#160;tars&#160;them&#160;up,&#160;and&#160;encrypts&#160;the&#160;result&#160;with</text><text class="terminal-1531047631-r2" x="1207.8" y="434.8" textLength="12.2" clip-path="url(#terminal-1531047631-line-17)">│</text><text class="terminal-1531047631-r1" x="1342" y="434.8" textLength="12.2" clip-path="url(#terminal-1531047631-line-17)">
</text><text class="terminal-1531047631-r2" x="122" y="459.2" textLength="12.2" clip-path="url(#terminal-1531047631-line-18)">│</text><text class="terminal-1531047631-r4" x="158.6" y="459.2" textLength="829.6" clip-path="url(#terminal-1531047631-line-18)">&#160;&#160;&#160;&#160;&#160;industry-standard&#160;AES-256-GCM.&#160;Your&#160;passphrase&#160;is&#160;the&#160;only&#160;key.</text><text class="terminal-1531047631-r2" x="1207.8" y="459.2" textLength="12.2" clip-path="url(#terminal-1531047631-line-18)">│</text><text class="terminal-1531047631-r1" x="1342" y="459.2" textLength="12.2" clip-path="url(#terminal-1531047631-line-18)">
</text><text class="terminal-1531047631-r2" x="122" y="483.6" textLength="12.2" clip-path="url(#terminal-1531047631-line-19)">│</text><text class="terminal-1531047631-r4" x="158.6" y="483.6" textLength="268.4" clip-path="url(#terminal-1531047631-line-19)">&#160;&#160;3.&#160;You&#160;get&#160;a&#160;single&#160;</text><text class="terminal-1531047631-r3" x="427" y="483.6" textLength="61" clip-path="url(#terminal-1531047631-line-19)">.skit</text><text class="terminal-1531047631-r4" x="488" y="483.6" textLength="512.4" clip-path="url(#terminal-1531047631-line-19)">&#160;file.&#160;Hand&#160;it&#160;to&#160;a&#160;lawyer,&#160;upload&#160;it&#160;to&#160;a</text><text class="terminal-1531047631-r2" x="1207.8" y="483.6" textLength="12.2" clip-path="url(#terminal-1531047631-line-19)">│</text><text class="terminal-1531047631-r1" x="1342" y="483.6" textLength="12.2" clip-path="url(#terminal-1531047631-line-19)">
</text><text class="terminal-1531047631-r2" x="122" y="508" textLength="12.2" clip-path="url(#terminal-1531047631-line-20)">│</text><text class="terminal-1531047631-r4" x="158.6" y="508" textLength="585.6" clip-path="url(#terminal-1531047631-line-20)">&#160;&#160;&#160;&#160;&#160;regulator&#x27;s&#160;secure&#160;portal,&#160;or&#160;hold&#160;onto&#160;it.</text><text class="terminal-1531047631-r2" x="1207.8" y="508" textLength="12.2" clip-path="url(#terminal-1531047631-line-20)">│</text><text class="terminal-1531047631-r1" x="1342" y="508" textLength="12.2" clip-path="url(#terminal-1531047631-line-20)">
</text><text class="terminal-1531047631-r2" x="122" y="532.4" textLength="12.2" clip-path="url(#terminal-1531047631-line-21)">│</text><text class="terminal-1531047631-r2" x="1207.8" y="532.4" textLength="12.2" clip-path="url(#terminal-1531047631-line-21)">│</text><text class="terminal-1531047631-r1" x="1342" y="532.4" textLength="12.2" clip-path="url(#terminal-1531047631-line-21)">
</text><text class="terminal-1531047631-r2" x="122" y="556.8" textLength="12.2" clip-path="url(#terminal-1531047631-line-22)">│</text><text class="terminal-1531047631-r3" x="158.6" y="556.8" textLength="341.6" clip-path="url(#terminal-1531047631-line-22)">IMPORTANT&#160;—&#160;read&#160;this&#160;twice:</text><text class="terminal-1531047631-r2" x="1207.8" y="556.8" textLength="12.2" clip-path="url(#terminal-1531047631-line-22)">│</text><text class="terminal-1531047631-r1" x="1342" y="556.8" textLength="12.2" clip-path="url(#terminal-1531047631-line-22)">
</text><text class="terminal-1531047631-r2" x="122" y="581.2" textLength="12.2" clip-path="url(#terminal-1531047631-line-23)">│</text><text class="terminal-1531047631-r2" x="1207.8" y="581.2" textLength="12.2" clip-path="url(#terminal-1531047631-line-23)">│</text><text class="terminal-1531047631-r1" x="1342" y="581.2" textLength="12.2" clip-path="url(#terminal-1531047631-line-23)">
</text><text class="terminal-1531047631-r2" x="122" y="605.6" textLength="12.2" clip-path="url(#terminal-1531047631-line-24)">│</text><text class="terminal-1531047631-r4" x="158.6" y="605.6" textLength="378.2" clip-path="url(#terminal-1531047631-line-24)">If&#160;you&#160;forget&#160;your&#160;passphrase,&#160;</text><text class="terminal-1531047631-r3" x="536.8" y="605.6" textLength="73.2" clip-path="url(#terminal-1531047631-line-24)">no&#160;one</text><text class="terminal-1531047631-r4" x="610" y="605.6" textLength="414.8" clip-path="url(#terminal-1531047631-line-24)">&#160;—&#160;not&#160;Anthropic,&#160;not&#160;the&#160;SecurKit</text><text class="terminal-1531047631-r2" x="1207.8" y="605.6" textLength="12.2" clip-path="url(#terminal-1531047631-line-24)">│</text><text class="terminal-1531047631-r1" x="1342" y="605.6" textLength="12.2" clip-path="url(#terminal-1531047631-line-24)">
</text><text class="terminal-1531047631-r2" x="122" y="630" textLength="12.2" clip-path="url(#terminal-1531047631-line-25)">│</text><text class="terminal-1531047631-r4" x="158.6" y="630" textLength="915" clip-path="url(#terminal-1531047631-line-25)">author,&#160;not&#160;the&#160;FBI&#160;—&#160;can&#160;recover&#160;your&#160;files.&#160;There&#160;is&#160;no&#160;&quot;forgot&#160;password&quot;</text><text class="terminal-1531047631-r2" x="1207.8" y="630" textLength="12.2" clip-path="url(#terminal-1531047631-line-25)">│</text><text class="terminal-1531047631-r1" x="1342" y="630" textLength="12.2" clip-path="url(#terminal-1531047631-line-25)">
</text><text class="terminal-1531047631-r2" x="122" y="654.4" textLength="12.2" clip-path="url(#terminal-1531047631-line-26)">│</text><text class="terminal-1531047631-r4" x="158.6" y="654.4" textLength="927.2" clip-path="url(#terminal-1531047631-line-26)">link.&#160;The&#160;encryption&#160;is&#160;the&#160;real&#160;thing.&#160;Pick&#160;a&#160;passphrase&#160;you&#160;will&#160;not&#160;lose,</text><text class="terminal-1531047631-r2" x="1207.8" y="654.4" textLength="12.2" clip-path="url(#terminal-1531047631-line-26)">│</text><text class="terminal-1531047631-r1" x="1342" y="654.4" textLength="12.2" clip-path="url(#terminal-1531047631-line-26)">
</text><text class="terminal-1531047631-r2" x="122" y="678.8" textLength="12.2" clip-path="url(#terminal-1531047631-line-27)">│</text><text class="terminal-1531047631-r4" x="158.6" y="678.8" textLength="915" clip-path="url(#terminal-1531047631-line-27)">and&#160;consider&#160;writing&#160;it&#160;down&#160;somewhere&#160;a&#160;flood,&#160;fire,&#160;or&#160;laptop&#160;theft&#160;won&#x27;t</text><text class="terminal-1531047631-r2" x="1207.8" y="678.8" textLength="12.2" clip-path="url(#terminal-1531047631-line-27)">│</text><text class="terminal-1531047631-r1" x="1342" y="678.8" textLength="12.2" clip-path="url(#terminal-1531047631-line-27)">
</text><text class="terminal-1531047631-r2" x="122" y="703.2" textLength="12.2" clip-path="url(#terminal-1531047631-line-28)">│</text><text class="terminal-1531047631-r4" x="158.6" y="703.2" textLength="158.6" clip-path="url(#terminal-1531047631-line-28)">take&#160;with&#160;it.</text><text class="terminal-1531047631-r2" x="1207.8" y="703.2" textLength="12.2" clip-path="url(#terminal-1531047631-line-28)">│</text><text class="terminal-1531047631-r1" x="1342" y="703.2" textLength="12.2" clip-path="url(#terminal-1531047631-line-28)">
</text><text class="terminal-1531047631-r2" x="122" y="727.6" textLength="12.2" clip-path="url(#terminal-1531047631-line-29)">│</text><text class="terminal-1531047631-r2" x="1207.8" y="727.6" textLength="12.2" clip-path="url(#terminal-1531047631-line-29)">│</text><text class="terminal-1531047631-r1" x="1342" y="727.6" textLength="12.2" clip-path="url(#terminal-1531047631-line-29)">
</text><text class="terminal-1531047631-r2" x="122" y="752" textLength="12.2" clip-path="url(#terminal-1531047631-line-30)">│</text><text class="terminal-1531047631-r3" x="158.6" y="752" textLength="317.2" clip-path="url(#terminal-1531047631-line-30)">A&#160;few&#160;more&#160;things&#160;to&#160;know:</text><text class="terminal-1531047631-r2" x="1207.8" y="752" textLength="12.2" clip-path="url(#terminal-1531047631-line-30)">│</text><text class="terminal-1531047631-r1" x="1342" y="752" textLength="12.2" clip-path="url(#terminal-1531047631-line-30)">
</text><text class="terminal-1531047631-r2" x="122" y="776.4" textLength="12.2" clip-path="url(#terminal-1531047631-line-31)">│</text><text class="terminal-1531047631-r2" x="1207.8" y="776.4" textLength="12.2" clip-path="url(#terminal-1531047631-line-31)">│</text><text class="terminal-1531047631-r1" x="1342" y="776.4" textLength="12.2" clip-path="url(#terminal-1531047631-line-31)">
</text><text class="terminal-1531047631-r2" x="122" y="800.8" textLength="12.2" clip-path="url(#terminal-1531047631-line-32)">│</text><text class="terminal-1531047631-r2" x="1207.8" y="800.8" textLength="12.2" clip-path="url(#terminal-1531047631-line-32)">│</text><text class="terminal-1531047631-r1" x="1342" y="800.8" textLength="12.2" clip-path="url(#terminal-1531047631-line-32)">
</text><text class="terminal-1531047631-r2" x="122" y="825.2" textLength="12.2" clip-path="url(#terminal-1531047631-line-33)">╰</text><text class="terminal-1531047631-r2" x="134.2" y="825.2" textLength="1073.6" clip-path="url(#terminal-1531047631-line-33)">────────────────────────────────────────────────────────────────────────────────────────</text><text class="terminal-1531047631-r2" x="1207.8" y="825.2" textLength="12.2" clip-path="url(#terminal-1531047631-line-33)">╯</text><text class="terminal-1531047631-r1" x="1342" y="825.2" textLength="12.2" clip-path="url(#terminal-1531047631-line-33)">
</text><text class="terminal-1531047631-r1" x="1342" y="849.6" textLength="12.2" clip-path="url(#terminal-1531047631-line-34)">
</text>
    </g>
    </g>
</svg>
