<svg class="rich-terminal" viewBox="0 0 1360 928.4" xmlns="http://www.w3.org/2000/svg">
    <!-- Generated with Rich https://www.textualize.io -->
    <style>

    @font-face {
        font-family: "Fira Code";
        src: local("FiraCode-Regular"),
                url("https://cdnjs.cloudflare.com/ajax/libs/firacode/6.2.0/woff2/FiraCode-Regular.woff2") format("woff2"),
                url("https://cdnjs.cloudflare.com/ajax/libs/firacode/6.2.0/woff/FiraCode-Regular.woff") format("woff");
        font-style: normal;
        font-weight: 400;
    }
    @font-face {
        font-family: "Fira Code";
        src: local("FiraCode-Bold"),
                url("https://cdnjs.cloudflare.com/ajax/libs/firacode/6.2.0/woff2/FiraCode-Bold.woff2") format("woff2"),
                url("https://cdnjs.cloudflare.com/ajax/libs/firacode/6.2.0/woff/FiraCode-Bold.woff") format("woff");
        font-style: bold;
        font-weight: 700;
    }

    .terminal-4270295366-matrix {
        font-family: Fira Code, monospace;
        font-size: 20px;
        line-height: 24.4px;
        font-variant-east-asian: full-width;
    }

    .terminal-4270295366-title {
        font-size: 18px;
        font-weight: bold;
        font-family: arial;
    }

    .terminal-4270295366-r1 { fill: #c5c8c6 }
.terminal-4270295366-r2 { fill: #e0e0e0 }
.terminal-4270295366-r3 { fill: #fea62b;font-weight: bold }
.terminal-4270295366-r4 { fill: #0178d4 }
.terminal-4270295366-r5 { fill: #e0e0e0;font-weight: bold }
.terminal-4270295366-r6 { fill: #ddedf9;font-weight: bold }
.terminal-4270295366-r7 { fill: #999999 }
.terminal-4270295366-r8 { fill: #ffa62b;font-weight: bold }
.terminal-4270295366-r9 { fill: #495259 }
    </style>

    <defs>
    <clipPath id="terminal-4270295366-clip-terminal">
      <rect x="0" y="0" width="1341.0" height="877.4" />
    </clipPath>
    <clipPath id="terminal-4270295366-line-0">
    <rect x="0" y="1.5" width="1342" height="24.65"/>
            </clipPath>
<clipPath id="terminal-4270295366-line-1">
    <rect x="0" y="25.9" width="1342" height="24.65"/>
            </clipPath>
<clipPath id="terminal-4270295366-line-2">
    <rect x="0" y="50.3" width="1342" height="24.65"/>
            </clipPath>
<clipPath id="terminal-4270295366-line-3">
    <rect x="0" y="74.7" width="1342" height="24.65"/>
            </clipPath>
<clipPath id="terminal-4270295366-line-4">
    <rect x="0" y="99.1" width="1342" height="24.65"/>
            </clipPath>
<clipPath id="terminal-4270295366-line-5">
    <rect x="0" y="123.5" width="1342" height="24.65"/>
            </clipPath>
<clipPath id="terminal-4270295366-line-6">
    <rect x="0" y="147.9" width="1342" height="24.65"/>
            </clipPath>
<clipPath id="terminal-4270295366-line-7">
    <rect x="0" y="172.3" width="1342" height="24.65"/>
            </clipPath>
<clipPath id="terminal-4270295366-line-8">
    <rect x="0" y="196.7" width="1342" height="24.65"/>
            </clipPath>
<clipPath id="terminal-4270295366-line-9">
    <rect x="0" y="221.1" width="1342" height="24.65"/>
            </clipPath>
<clipPath id="terminal-4270295366-line-10">
    <rect x="0" y="245.5" width="1342" height="24.65"/>
            </clipPath>
<clipPath id="terminal-4270295366-line-11">
    <rect x="0" y="269.9" width="1342" height="24.65"/>
            </clipPath>
<clipPath id="terminal-4270295366-line-12">
    <rect x="0" y="294.3" width="1342" height="24.65"/>
            </clipPath>
<clipPath id="terminal-4270295366-line-13">
    <rect x="0" y="318.7" width="1342" height="24.65"/>
            </clipPath>
<clipPath id="terminal-4270295366-line-14">
    <rect x="0" y="343.1" width="1342" height="24.65"/>
            </clipPath>
<clipPath id="terminal-4270295366-line-15">
    <rect x="0" y="367.5" width="1342" height="24.65"/>
            </clipPath>
<clipPath id="terminal-4270295366-line-16">
    <rect x="0" y="391.9" width="1342" height="24.65"/>
            </clipPath>
<clipPath id="terminal-4270295366-line-17">
    <rect x="0" y="416.3" width="1342" height="24.65"/>
            </clipPath>
<clipPath id="terminal-4270295366-line-18">
    <rect x="0" y="440.7" width="1342" height="24.65"/>
            </clipPath>
<clipPath id="terminal-4270295366-line-19">
    <rect x="0" y="465.1" width="1342" height="24.65"/>
            </clipPath>
<clipPath id="terminal-4270295366-line-20">
    <rect x="0" y="489.5" width="1342" height="24.65"/>
            </clipPath>
<clipPath id="terminal-4270295366-line-21">
    <rect x="0" y="513.9" width="1342" height="24.65"/>
            </clipPath>
<clipPath id="terminal-4270295366-line-22">
    <rect x="0" y="538.3" width="1342" height="24.65"/>
            </clipPath>
<clipPath id="terminal-4270295366-line-23">
    <rect x="0" y="562.7" width="1342" height="24.65"/>
            </clipPath>
<clipPath id="terminal-4270295366-line-24">
    <rect x="0" y="587.1" width="1342" height="24.65"/>
            </clipPath>
<clipPath id="terminal-4270295366-line-25">
    <rect x="0" y="611.5" width="1342" height="24.65"/>
            </clipPath>
<clipPath id="terminal-4270295366-line-26">
    <rect x="0" y="635.9" width="1342" height="24.65"/>
            </clipPath>
<clipPath id="terminal-4270295366-line-27">
    <rect x="0" y="660.3" width="1342" height="24.65"/>
            </clipPath>
<clipPath id="terminal-4270295366-line-28">
    <rect x="0" y="684.7" width="1342" height="24.65"/>
            </clipPath>
<clipPath id="terminal-4270295366-line-29">
    <rect x="0" y="709.1" width="1342" height="24.65"/>
            </clipPath>
<clipPath id="terminal-4270295366-line-30">
    <rect x="0" y="733.5" width="1342" height="24.65"/>
            </clipPath>
<clipPath id="terminal-4270295366-line-31">
    <rect x="0" y="757.9" width="1342" height="24.65"/>
            </clipPath>
<clipPath id="terminal-4270295366-line-32">
    <rect x="0" y="782.3" width="1342" height="24.65"/>
            </clipPath>
<clipPath id="terminal-4270295366-line-33">
    <rect x="0" y="806.7" width="1342" height="24.65"/>
            </clipPath>
<clipPath id="terminal-4270295366-line-34">
    <rect x="0" y="831.1" width="1342" height="24.65"/>
            </clipPath>
    </defs>

    <rect fill="#292929" stroke="rgba(255,255,255,0.35)" stroke-width="1" x="1" y="1" width="1358" height="926.4" rx="8"/><text class="terminal-4270295366-title" fill="#c5c8c6" text-anchor="middle" x="679" y="27">SecurKitApp</text>
            <g transform="translate(26,22)">
            <circle cx="0" cy="0" r="7" fill="#ff5f57"/>
            <circle cx="22" cy="0" r="7" fill="#febc2e"/>
            <circle cx="44" cy="0" r="7" fill="#28c840"/>
            </g>
        
    <g transform="translate(9, 41)" clip-path="url(#terminal-4270295366-clip-terminal)">
    <rect fill="#242f38" x="0" y="1.5" width="12.2" height="24.65" shape-rendering="crispEdges"/><rect fill="#242f38" x="12.2" y="1.5" width="12.2" height="24.65" shape-rendering="crispEdges"/><rect fill="#242f38" x="24.4" y="1.5" width="61" height="24.65" shape-rendering="crispEdges"/><rect fill="#242f38" x="85.4" y="1.5" width="12.2" height="24.65" shape-rendering="crispEdges"/><rect fill="#242f38" x="97.6" y="1.5" width="488" height="24.65" shape-rendering="crispEdges"/><rect fill="#242f38" x="585.6" y="1.5" width="134.2" height="24.65" shape-rendering="crispEdges"/><rect fill="#242f38" x="719.8" y="1.5" width="500.2" height="24.65" shape-rendering="crispEdges"/><rect fill="#242f38" x="1220" y="1.5" width="12.2" height="24.65" shape-rendering="crispEdges"/><rect fill="#242f38" x="1232.2" y="1.5" width="0" height="24.65" shape-rendering="crispEdges"/><rect fill="#242f38" x="1232.2" y="1.5" width="97.6" height="24.65" shape-rendering="crispEdges"/><rect fill="#242f38" x="1329.8" y="1.5" width="12.2" height="24.65" shape-rendering="crispEdges"/><rect fill="#121212" x="0" y="25.9" width="122" height="24.65" shape-rendering="crispEdges"/><rect fill="#121212" x="122" y="25.9" width="134.2" height="24.65" shape-rendering="crispEdges"/><rect fill="#121212" x="256.2" y="25.9" width="12.2" height="24.65" shape-rendering="crispEdges"/><rect fill="#121212" x="268.4" y="25.9" width="1073.6" height="24.65" shape-rendering="crispEdges"/><rect fill="#121212" x="0" y="50.3" width="256.2" height="24.65" shape-rendering="crispEdges"/><rect fill="#121212" x="256.2" y="50.3" width="12.2" height="24.65" shape-rendering="crispEdges"/><rect fill="#121212" x="268.4" y="50.3" width="24.4" height="24.65" shape-rendering="crispEdges"/><rect fill="#121212" x="292.8" y="50.3" width="170.8" height="24.65" shape-rendering="crispEdges"/><rect fill="#121212" x="463.6" y="50.3" width="854" height="24.65" shape-rendering="crispEdges"/><rect fill="#121212" x="1317.6" y="50.3" width="24.4" height="24.65" shape-rendering="crispEdges"/><rect fill="#272727" x="0" y="74.7" width="85.4" height="24.65" shape-rendering="crispEdges"/><rect fill="#272727" x="85.4" y="74.7" width="170.8" height="24.65" shape-rendering="crispEdges"/><rect fill="#121212" x="256.2" y="74.7" width="12.2" height="24.65" shape-rendering="crispEdges"/><rect fill="#121212" x="268.4" y="74.7" width="24.4" height="24.65" shape-rendering="crispEdges"/><rect fill="#121212" x="292.8" y="74.7" width="1024.8" height="24.65" shape-rendering="crispEdges"/><rect fill="#121212" x="1317.6" y="74.7" width="24.4" height="24.65" shape-rendering="crispEdges"/><rect fill="#272727" x="0" y="99.1" width="85.4" height="24.65" shape-rendering="crispEdges"/><rect fill="#272727" x="85.4" y="99.1" width="170.8" height="24.65" shape-rendering="crispEdges"/><rect fill="#121212" x="256.2" y="99.1" width="12.2" height="24.65" shape-rendering="crispEdges"/><rect fill="#121212" x="268.4" y="99.1" width="24.4" height="24.65" shape-rendering="crispEdges"/><rect fill="#121212" x="292.8" y="99.1" width="183" height="24.65" shape-rendering="crispEdges"/><rect fill="#121212" x="475.8" y="99.1" width="841.8" height="24.65" shape-rendering="crispEdges"/><rect fill="#121212" x="1317.6" y="99.1" width="24.4" height="24.65" shape-rendering="crispEdges"/><rect fill="#272727" x="0" y="123.5" width="97.6" height="24.65" shape-rendering="crispEdges"/><rect fill="#272727" x="97.6" y="123.5" width="158.6" height="24.65" shape-rendering="crispEdges"/><rect fill="#121212" x="256.2" y="123.5" width="12.2" height="24.65" shape-rendering="crispEdges"/><rect fill="#121212" x="268.4" y="123.5" width="24.4" height="24.65" shape-rendering="crispEdges"/><rect fill="#121212" x="292.8" y="123.5" width="0" height="24.65" shape-rendering="crispEdges"/><rect fill="#121212" x="292.8" y="123.5" width="1024.8" height="24.65" shape-rendering="crispEdges"/><rect fill="#121212" x="1317.6" y="123.5" width="24.4" height="24.65" shape-rendering="crispEdges"/><rect fill="#0178d4" x="0" y="147.9" width="61" height="24.65" shape-rendering="crispEdges"/><rect fill="#0178d4" x="61" y="147.9" width="195.2" height="24.65" shape-rendering="crispEdges"/><rect fill="#121212" x="256.2" y="147.9" width="12.2" height="24.65" shape-rendering="crispEdges"/><rect fill="#121212" x="268.4" y="147.9" width="24.4" height="24.65" shape-rendering="crispEdges"/><rect fill="#121212" x="292.8" y="147.9" width="707.6" height="24.65" shape-rendering="crispEdges"/><rect fill="#121212" x="1000.4" y="147.9" width="317.2" height="24.65" shape-rendering="crispEdges"/><rect fill="#121212" x="1317.6" y="147.9" width="24.4" height="24.65" shape-rendering="crispEdges"/><rect fill="#272727" x="0" y="172.3" width="256.2" height="24.65" shape-rendering="crispEdges"/><rect fill="#121212" x="256.2" y="172.3" width="12.2" height="24.65" shape-rendering="crispEdges"/><rect fill="#121212" x="268.4" y="172.3" width="24.4" height="24.65" shape-rendering="crispEdges"/><rect fill="#121212" x="292.8" y="172.3" width="854" height="24.65" shape-rendering="crispEdges"/><rect fill="#121212" x="1146.8" y="172.3" width="170.8" height="24.65" shape-rendering="crispEdges"/><rect fill="#121212" x="1317.6" y="172.3" width="24.4" height="24.65" shape-rendering="crispEdges"/><rect fill="#272727" x="0" y="196.7" width="256.2" height="24.65" shape-rendering="crispEdges"/><rect fill="#121212" x="256.2" y="196.7" width="12.2" height="24.65" shape-rendering="crispEdges"/><rect fill="#121212" x="268.4" y="196.7" width="24.4" height="24.65" shape-rendering="crispEdges"/><rect fill="#121212" x="292.8" y="196.7" width="0" height="24.65" shape-rendering="crispEdges"/><rect fill="#121212" x="292.8" y="196.7" width="1024.8" height="24.65" shape-rendering="crispEdges"/><rect fill="#121212" x="1317.6" y="196.7" width="24.4" height="24.65" shape-rendering="crispEdges"/><rect fill="#272727" x="0" y="221.1" width="256.2" height="24.65" shape-rendering="crispEdges"/><rect fill="#121212" x="256.2" y="221.1" width="12.2" height="24.65" shape-rendering="crispEdges"/><rect fill="#121212" x="268.4" y="221.1" width="24.4" height="24.65" shape-rendering="crispEdges"/><rect fill="#121212" x="292.8" y="221.1" width="317.2" height="24.65" shape-rendering="crispEdges"/><rect fill="#121212" x="610" y="221.1" width="707.6" height="24.65" shape-rendering="crispEdges"/><rect fill="#121212" x="1317.6" y="221.1" width="24.4" height="24.65" shape-rendering="crispEdges"/><rect fill="#272727" x="0" y="245.5" width="256.2" height="24.65" shape-rendering="crispEdges"/><rect fill="#121212" x="256.2" y="245.5" width="12.2" height="24.65" shape-rendering="crispEdges"/><rect fill="#121212" x="268.4" y="245.5" width="24.4" height="24.65" shape-rendering="crispEdges"/><rect fill="#121212" x="292.8" y="245.5" width="439.2" height="24.65" shape-rendering="crispEdges"/><rect fill="#121212" x="732" y="245.5" width="585.6" height="24.65" shape-rendering="crispEdges"/><rect fill="#121212" x="1317.6" y="245.5" width="24.4" height="24.65" shape-rendering="crispEdges"/><rect fill="#272727" x="0" y="269.9" width="256.2" height="24.65" shape-rendering="crispEdges"/><rect fill="#121212" x="256.2" y="269.9" width="12.2" height="24.65" shape-rendering="crispEdges"/><rect fill="#121212" x="268.4" y="269.9" width="24.4" height="24.65" shape-rendering="crispEdges"/><rect fill="#121212" x="292.8" y="269.9" width="622.2" height="24.65" shape-rendering="crispEdges"/><rect fill="#121212" x="915" y="269.9" width="402.6" height="24.65" shape-rendering="crispEdges"/><rect fill="#121212" x="1317.6" y="269.9" width="24.4" height="24.65" shape-rendering="crispEdges"/><rect fill="#272727" x="0" y="294.3" width="256.2" height="24.65" shape-rendering="crispEdges"/><rect fill="#121212" x="256.2" y="294.3" width="12.2" height="24.65" shape-rendering="crispEdges"/><rect fill="#121212" x="268.4" y="294.3" width="24.4" height="24.65" shape-rendering="crispEdges"/><rect fill="#121212" x="292.8" y="294.3" width="207.4" height="24.65" shape-rendering="crispEdges"/><rect fill="#121212" x="500.2" y="294.3" width="585.6" height="24.65" shape-rendering="crispEdges"/><rect fill="#121212" x="1085.8" y="294.3" width="231.8" height="24.65" shape-rendering="crispEdges"/><rect fill="#121212" x="1317.6" y="294.3" width="24.4" height="24.65" shape-rendering="crispEdges"/><rect fill="#272727" x="0" y="318.7" width="256.2" height="24.65" shape-rendering="crispEdges"/><rect fill="#121212" x="256.2" y="318.7" width="12.2" height="24.65" shape-rendering="crispEdges"/><rect fill="#121212" x="268.4" y="318.7" width="24.4" height="24.65" shape-rendering="crispEdges"/><rect fill="#121212" x="292.8" y="318.7" width="0" height="24.65" shape-rendering="crispEdges"/><rect fill="#121212" x="292.8" y="318.7" width="1024.8" height="24.65" shape-rendering="crispEdges"/><rect fill="#121212" x="1317.6" y="318.7" width="24.4" height="24.65" shape-rendering="crispEdges"/><rect fill="#272727" x="0" y="343.1" width="256.2" height="24.65" shape-rendering="crispEdges"/><rect fill="#121212" x="256.2" y="343.1" width="12.2" height="24.65" shape-rendering="crispEdges"/><rect fill="#121212" x="268.4" y="343.1" width="24.4" height="24.65" shape-rendering="crispEdges"/><rect fill="#121212" x="292.8" y="343.1" width="109.8" height="24.65" shape-rendering="crispEdges"/><rect fill="#121212" x="402.6" y="343.1" width="915" height="24.65" shape-rendering="crispEdges"/><rect fill="#121212" x="1317.6" y="343.1" width="24.4" height="24.65" shape-rendering="crispEdges"/><rect fill="#272727" x="0" y="367.5" width="256.2" height="24.65" shape-rendering="crispEdges"/><rect fill="#121212" x="256.2" y="367.5" width="12.2" height="24.65" shape-rendering="crispEdges"/><rect fill="#121212" x="268.4" y="367.5" width="24.4" height="24.65" shape-rendering="crispEdges"/><rect fill="#121212" x="292.8" y="367.5" width="634.4" height="24.65" shape-rendering="crispEdges"/><rect fill="#121212" x="927.2" y="367.5" width="390.4" height="24.65" shape-rendering="crispEdges"/><rect fill="#121212" x="1317.6" y="367.5" width="24.4" height="24.65" shape-rendering="crispEdges"/><rect fill="#272727" x="0" y="391.9" width="256.2" height="24.65" shape-rendering="crispEdges"/><rect fill="#121212" x="256.2" y="391.9" width="12.2" height="24.65" shape-rendering="crispEdges"/><rect fill="#121212" x="268.4" y="391.9" width="24.4" height="24.65" shape-rendering="crispEdges"/><rect fill="#121212" x="292.8" y="391.9" width="671" height="24.65" shape-rendering="crispEdges"/><rect fill="#121212" x="963.8" y="391.9" width="353.8" height="24.65" shape-rendering="crispEdges"/><rect fill="#121212" x="1317.6" y="391.9" width="24.4" height="24.65" shape-rendering="crispEdges"/><rect fill="#272727" x="0" y="416.3" width="256.2" height="24.65" shape-rendering="crispEdges"/><rect fill="#121212" x="256.2" y="416.3" width="12.2" height="24.65" shape-rendering="crispEdges"/><rect fill="#121212" x="268.4" y="416.3" width="24.4" height="24.65" shape-rendering="crispEdges"/><rect fill="#121212" x="292.8" y="416.3" width="793" height="24.65" shape-rendering="crispEdges"/><rect fill="#121212" x="1085.8" y="416.3" width="231.8" height="24.65" shape-rendering="crispEdges"/><rect fill="#121212" x="1317.6" y="416.3" width="24.4" height="24.65" shape-rendering="crispEdges"/><rect fill="#272727" x="0" y="440.7" width="256.2" height="24.65" shape-rendering="crispEdges"/><rect fill="#121212" x="256.2" y="440.7" width="12.2" height="24.65" shape-rendering="crispEdges"/><rect fill="#121212" x="268.4" y="440.7" width="24.4" height="24.65" shape-rendering="crispEdges"/><rect fill="#121212" x="292.8" y="440.7" width="719.8" height="24.65" shape-rendering="crispEdges"/><rect fill="#121212" x="1012.6" y="440.7" width="305" height="24.65" shape-rendering="crispEdges"/><rect fill="#121212" x="1317.6" y="440.7" width="24.4" height="24.65" shape-rendering="crispEdges"/><rect fill="#272727" x="0" y="465.1" width="256.2" height="24.65" shape-rendering="crispEdges"/><rect fill="#121212" x="256.2" y="465.1" width="12.2" height="24.65" shape-rendering="crispEdges"/><rect fill="#121212" x="268.4" y="465.1" width="24.4" height="24.65" shape-rendering="crispEdges"/><rect fill="#121212" x="292.8" y="465.1" width="756.4" height="24.65" shape-rendering="crispEdges"/><rect fill="#121212" x="1049.2" y="465.1" width="268.4" height="24.65" shape-rendering="crispEdges"/><rect fill="#121212" x="1317.6" y="465.1" width="24.4" height="24.65" shape-rendering="crispEdges"/><rect fill="#272727" x="0" y="489.5" width="256.2" height="24.65" shape-rendering="crispEdges"/><rect fill="#121212" x="256.2" y="489.5" width="12.2" height="24.65" shape-rendering="crispEdges"/><rect fill="#121212" x="268.4" y="489.5" width="24.4" height="24.65" shape-rendering="crispEdges"/><rect fill="#121212" x="292.8" y="489.5" width="658.8" height="24.65" shape-rendering="crispEdges"/><rect fill="#121212" x="951.6" y="489.5" width="366" height="24.65" shape-rendering="crispEdges"/><rect fill="#121212" x="1317.6" y="489.5" width="24.4" height="24.65" shape-rendering="crispEdges"/><rect fill="#272727" x="0" y="513.9" width="256.2" height="24.65" shape-rendering="crispEdges"/><rect fill="#121212" x="256.2" y="513.9" width="12.2" height="24.65" shape-rendering="crispEdges"/><rect fill="#121212" x="268.4" y="513.9" width="24.4" height="24.65" shape-rendering="crispEdges"/><rect fill="#121212" x="292.8" y="513.9" width="0" height="24.65" shape-rendering="crispEdges"/><rect fill="#121212" x="292.8" y="513.9" width="1024.8" height="24.65" shape-rendering="crispEdges"/><rect fill="#121212" x="1317.6" y="513.9" width="24.4" height="24.65" shape-rendering="crispEdges"/><rect fill="#272727" x="0" y="538.3" width="256.2" height="24.65" shape-rendering="crispEdges"/><rect fill="#121212" x="256.2" y="538.3" width="12.2" height="24.65" shape-rendering="crispEdges"/><rect fill="#121212" x="268.4" y="538.3" width="24.4" height="24.65" shape-rendering="crispEdges"/><rect fill="#121212" x="292.8" y="538.3" width="658.8" height="24.65" shape-rendering="crispEdges"/><rect fill="#121212" x="951.6" y="538.3" width="366" height="24.65" shape-rendering="crispEdges"/><rect fill="#121212" x="1317.6" y="538.3" width="24.4" height="24.65" shape-rendering="crispEdges"/><rect fill="#272727" x="0" y="562.7" width="256.2" height="24.65" shape-rendering="crispEdges"/><rect fill="#121212" x="256.2" y="562.7" width="12.2" height="24.65" shape-rendering="crispEdges"/><rect fill="#121212" x="268.4" y="562.7" width="24.4" height="24.65" shape-rendering="crispEdges"/><rect fill="#121212" x="292.8" y="562.7" width="1024.8" height="24.65" shape-rendering="crispEdges"/><rect fill="#121212" x="1317.6" y="562.7" width="24.4" height="24.65" shape-rendering="crispEdges"/><rect fill="#272727" x="0" y="587.1" width="256.2" height="24.65" shape-rendering="crispEdges"/><rect fill="#121212" x="256.2" y="587.1" width="12.2" height="24.65" shape-rendering="crispEdges"/><rect fill="#121212" x="268.4" y="587.1" width="24.4" height="24.65" shape-rendering="crispEdges"/><rect fill="#121212" x="292.8" y="587.1" width="1024.8" height="24.65" shape-rendering="crispEdges"/><rect fill="#121212" x="1317.6" y="587.1" width="24.4" height="24.65" shape-rendering="crispEdges"/><rect fill="#272727" x="0" y="611.5" width="256.2" height="24.65" shape-rendering="crispEdges"/><rect fill="#121212" x="256.2" y="611.5" width="12.2" height="24.65" shape-rendering="crispEdges"/><rect fill="#121212" x="268.4" y="611.5" width="24.4" height="24.65" shape-rendering="crispEdges"/><rect fill="#121212" x="292.8" y="611.5" width="1024.8" height="24.65" shape-rendering="crispEdges"/><rect fill="#121212" x="1317.6" y="611.5" width="24.4" height="24.65" shape-rendering="crispEdges"/><rect fill="#272727" x="0" y="635.9" width="256.2" height="24.65" shape-rendering="crispEdges"/><rect fill="#121212" x="256.2" y="635.9" width="12.2" height="24.65" shape-rendering="crispEdges"/><rect fill="#121212" x="268.4" y="635.9" width="24.4" height="24.65" shape-rendering="crispEdges"/><rect fill="#121212" x="292.8" y="635.9" width="1024.8" height="24.65" shape-rendering="crispEdges"/><rect fill="#121212" x="1317.6" y="635.9" width="24.4" height="24.65" shape-rendering="crispEdges"/><rect fill="#272727" x="0" y="660.3" width="256.2" height="24.65" shape-rendering="crispEdges"/><rect fill="#121212" x="256.2" y="660.3" width="12.2" height="24.65" shape-rendering="crispEdges"/><rect fill="#121212" x="268.4" y="660.3" width="24.4" height="24.65" shape-rendering="crispEdges"/><rect fill="#121212" x="292.8" y="660.3" width="1024.8" height="24.65" shape-rendering="crispEdges"/><rect fill="#121212" x="1317.6" y="660.3" width="24.4" height="24.65" shape-rendering="crispEdges"/><rect fill="#272727" x="0" y="684.7" width="256.2" height="24.65" shape-rendering="crispEdges"/><rect fill="#121212" x="256.2" y="684.7" width="12.2" height="24.65" shape-rendering="crispEdges"/><rect fill="#121212" x="268.4" y="684.7" width="24.4" height="24.65" shape-rendering="crispEdges"/><rect fill="#121212" x="292.8" y="684.7" width="1024.8" height="24.65" shape-rendering="crispEdges"/><rect fill="#121212" x="1317.6" y="684.7" width="24.4" height="24.65" shape-rendering="crispEdges"/><rect fill="#272727" x="0" y="709.1" width="256.2" height="24.65" shape-rendering="crispEdges"/><rect fill="#121212" x="256.2" y="709.1" width="12.2" height="24.65" shape-rendering="crispEdges"/><rect fill="#121212" x="268.4" y="709.1" width="24.4" height="24.65" shape-rendering="crispEdges"/><rect fill="#121212" x="292.8" y="709.1" width="1024.8" height="24.65" shape-rendering="crispEdges"/><rect fill="#121212" x="1317.6" y="709.1" width="24.4" height="24.65" shape-rendering="crispEdges"/><rect fill="#272727" x="0" y="733.5" width="256.2" height="24.65" shape-rendering="crispEdges"/><rect fill="#121212" x="256.2" y="733.5" width="12.2" height="24.65" shape-rendering="crispEdges"/><rect fill="#121212" x="268.4" y="733.5" width="24.4" height="24.65" shape-rendering="crispEdges"/><rect fill="#121212" x="292.8" y="733.5" width="1024.8" height="24.65" shape-rendering="crispEdges"/><rect fill="#121212" x="1317.6" y="733.5" width="24.4" height="24.65" shape-rendering="crispEdges"/><rect fill="#272727" x="0" y="757.9" width="256.2" height="24.65" shape-rendering="crispEdges"/><rect fill="#121212" x="256.2" y="757.9" width="12.2" height="24.65" shape-rendering="crispEdges"/><rect fill="#121212" x="268.4" y="757.9" width="24.4" height="24.65" shape-rendering="crispEdges"/><rect fill="#121212" x="292.8" y="757.9" width="1024.8" height="24.65" shape-rendering="crispEdges"/><rect fill="#121212" x="1317.6" y="757.9" width="24.4" height="24.65" shape-rendering="crispEdges"/><rect fill="#272727" x="0" y="782.3" width="256.2" height="24.65" shape-rendering="crispEdges"/><rect fill="#121212" x="256.2" y="782.3" width="12.2" height="24.65" shape-rendering="crispEdges"/><rect fill="#121212" x="268.4" y="782.3" width="24.4" height="24.65" shape-rendering="crispEdges"/><rect fill="#121212" x="292.8" y="782.3" width="1024.8" height="24.65" shape-rendering="crispEdges"/><rect fill="#121212" x="1317.6" y="782.3" width="24.4" height="24.65" shape-rendering="crispEdges"/><rect fill="#272727" x="0" y="806.7" width="256.2" height="24.65" shape-rendering="crispEdges"/><rect fill="#121212" x="256.2" y="806.7" width="12.2" height="24.65" shape-rendering="crispEdges"/><rect fill="#121212" x="268.4" y="806.7" width="24.4" height="24.65" shape-rendering="crispEdges"/><rect fill="#121212" x="292.8" y="806.7" width="1024.8" height="24.65" shape-rendering="crispEdges"/><rect fill="#121212" x="1317.6" y="806.7" width="24.4" height="24.65" shape-rendering="crispEdges"/><rect fill="#272727" x="0" y="831.1" width="256.2" height="24.65" shape-rendering="crispEdges"/><rect fill="#121212" x="256.2" y="831.1" width="12.2" height="24.65" shape-rendering="crispEdges"/><rect fill="#121212" x="268.4" y="831.1" width="1073.6" height="24.65" shape-rendering="crispEdges"/><rect fill="#242f38" x="0" y="855.5" width="36.6" height="24.65" shape-rendering="crispEdges"/><rect fill="#242f38" x="36.6" y="855.5" width="61" height="24.65" shape-rendering="crispEdges"/><rect fill="#242f38" x="97.6" y="855.5" width="36.6" height="24.65" shape-rendering="crispEdges"/><rect fill="#242f38" x="134.2" y="855.5" width="109.8" height="24.65" shape-rendering="crispEdges"/><rect fill="#242f38" x="244" y="855.5" width="951.6" height="24.65" shape-rendering="crispEdges"/><rect fill="#242f38" x="1195.6" y="855.5" width="12.2" height="24.65" shape-rendering="crispEdges"/><rect fill="#242f38" x="1207.8" y="855.5" width="24.4" height="24.65" shape-rendering="crispEdges"/><rect fill="#242f38" x="1232.2" y="855.5" width="97.6" height="24.65" shape-rendering="crispEdges"/><rect fill="#242f38" x="1329.8" y="855.5" width="12.2" height="24.65" shape-rendering="crispEdges"/>
    <g class="terminal-4270295366-matrix">
    <text class="terminal-4270295366-r2" x="12.2" y="20" textLength="12.2" clip-path="url(#terminal-4270295366-line-0)">⭘</text><text class="terminal-4270295366-r2" x="585.6" y="20" textLength="134.2" clip-path="url(#terminal-4270295366-line-0)">SecurKitApp</text><text class="terminal-4270295366-r1" x="1342" y="20" textLength="12.2" clip-path="url(#terminal-4270295366-line-0)">
</text><text class="terminal-4270295366-r3" x="0" y="44.4" textLength="122" clip-path="url(#terminal-4270295366-line-1)">&#160;SecurKit&#160;</text><text class="terminal-4270295366-r4" x="256.2" y="44.4" textLength="12.2" clip-path="url(#terminal-4270295366-line-1)">│</text><text class="terminal-4270295366-r1" x="1342" y="44.4" textLength="12.2" clip-path="url(#terminal-4270295366-line-1)">
</text><text class="terminal-4270295366-r4" x="256.2" y="68.8" textLength="12.2" clip-path="url(#terminal-4270295366-line-2)">│</text><text class="terminal-4270295366-r3" x="292.8" y="68.8" textLength="170.8" clip-path="url(#terminal-4270295366-line-2)">About&#160;SecurKit</text><text class="terminal-4270295366-r1" x="1342" y="68.8" textLength="12.2" clip-path="url(#terminal-4270295366-line-2)">
</text><text class="terminal-4270295366-r2" x="0" y="93.2" textLength="85.4" clip-path="url(#terminal-4270295366-line-3)">Encrypt</text><text class="terminal-4270295366-r4" x="256.2" y="93.2" textLength="12.2" clip-path="url(#terminal-4270295366-line-3)">│</text><text class="terminal-4270295366-r1" x="1342" y="93.2" textLength="12.2" clip-path="url(#terminal-4270295366-line-3)">
</text><text class="terminal-4270295366-r2" x="0" y="117.6" textLength="85.4" clip-path="url(#terminal-4270295366-line-4)">Decrypt</text><text class="terminal-4270295366-r4" x="256.2" y="117.6" textLength="12.2" clip-path="url(#terminal-4270295366-line-4)">│</text><text class="terminal-4270295366-r5" x="292.8" y="117.6" textLength="183" clip-path="url(#terminal-4270295366-line-4)">SecurKit&#160;v0.1.0</text><text class="terminal-4270295366-r1" x="1342" y="117.6" textLength="12.2" clip-path="url(#terminal-4270295366-line-4)">
</text><text class="terminal-4270295366-r2" x="0" y="142" textLength="97.6" clip-path="url(#terminal-4270295366-line-5)">Hotlines</text><text class="terminal-4270295366-r4" x="256.2" y="142" textLength="12.2" clip-path="url(#terminal-4270295366-line-5)">│</text><text class="terminal-4270295366-r1" x="1342" y="142" textLength="12.2" clip-path="url(#terminal-4270295366-line-5)">
</text><text class="terminal-4270295366-r6" x="0" y="166.4" textLength="61" clip-path="url(#terminal-4270295366-line-6)">About</text><text class="terminal-4270295366-r4" x="256.2" y="166.4" textLength="12.2" clip-path="url(#terminal-4270295366-line-6)">│</text><text class="terminal-4270295366-r2" x="292.8" y="166.4" textLength="707.6" clip-path="url(#terminal-4270295366-line-6)">Encrypts&#160;a&#160;folder&#160;of&#160;evidence&#160;with&#160;AES-256-GCM&#160;+&#160;Argon2id,</text><text class="terminal-4270295366-r1" x="1342" y="166.4" textLength="12.2" clip-path="url(#terminal-4270295366-line-6)">
</text><text class="terminal-4270295366-r4" x="256.2" y="190.8" textLength="12.2" clip-path="url(#terminal-4270295366-line-7)">│</text><text class="terminal-4270295366-r2" x="292.8" y="190.8" textLength="854" clip-path="url(#terminal-4270295366-line-7)">scrubs&#160;identifying&#160;metadata,&#160;points&#160;you&#160;at&#160;legitimate&#160;intake&#160;channels.</text><text class="terminal-4270295366-r1" x="1342" y="190.8" textLength="12.2" clip-path="url(#terminal-4270295366-line-7)">
</text><text class="terminal-4270295366-r4" x="256.2" y="215.2" textLength="12.2" clip-path="url(#terminal-4270295366-line-8)">│</text><text class="terminal-4270295366-r1" x="1342" y="215.2" textLength="12.2" clip-path="url(#terminal-4270295366-line-8)">
</text><text class="terminal-4270295366-r4" x="256.2" y="239.6" textLength="12.2" clip-path="url(#terminal-4270295366-line-9)">│</text><text class="terminal-4270295366-r5" x="292.8" y="239.6" textLength="317.2" clip-path="url(#terminal-4270295366-line-9)">On&#160;this&#160;machine&#160;right&#160;now:</text><text class="terminal-4270295366-r1" x="1342" y="239.6" textLength="12.2" clip-path="url(#terminal-4270295366-line-9)">
</text><text class="terminal-4270295366-r4" x="256.2" y="264" textLength="12.2" clip-path="url(#terminal-4270295366-line-10)">│</text><text class="terminal-4270295366-r2" x="292.8" y="264" textLength="439.2" clip-path="url(#terminal-4270295366-line-10)">&#160;&#160;RAM:&#160;&#160;&#160;&#160;&#160;&#160;&#160;&#160;&#160;&#160;&#160;21890&#160;MiB&#160;available</text><text class="terminal-4270295366-r1" x="1342" y="264" textLength="12.2" clip-path="url(#terminal-4270295366-line-10)">
</text><text class="terminal-4270295366-r4" x="256.2" y="288.4" textLength="12.2" clip-path="url(#terminal-4270295366-line-11)">│</text><text class="terminal-4270295366-r2" x="292.8" y="288.4" textLength="622.2" clip-path="url(#terminal-4270295366-line-11)">&#160;&#160;KDF&#160;settings:&#160;&#160;Argon2id,&#160;256&#160;MiB&#160;memory,&#160;t=3,&#160;p=1</text><text class="terminal-4270295366-r1" x="1342" y="288.4" textLength="12.2" clip-path="url(#terminal-4270295366-line-11)">
</text><text class="terminal-4270295366-r4" x="256.2" y="312.8" textLength="12.2" clip-path="url(#terminal-4270295366-line-12)">│</text><text class="terminal-4270295366-r2" x="292.8" y="312.8" textLength="207.4" clip-path="url(#terminal-4270295366-line-12)">&#160;&#160;Storage:&#160;&#160;&#160;&#160;&#160;&#160;&#160;</text><text class="terminal-4270295366-r7" x="500.2" y="312.8" textLength="585.6" clip-path="url(#terminal-4270295366-line-12)">home-dir&#160;mode&#160;—&#160;state&#160;at&#160;C:\Users\Tony\.securkit</text><text class="terminal-4270295366-r1" x="1342" y="312.8" textLength="12.2" clip-path="url(#terminal-4270295366-line-12)">
</text><text class="terminal-4270295366-r4" x="256.2" y="337.2" textLength="12.2" clip-path="url(#terminal-4270295366-line-13)">│</text><text class="terminal-4270295366-r1" x="1342" y="337.2" textLength="12.2" clip-path="url(#terminal-4270295366-line-13)">
</text><text class="terminal-4270295366-r4" x="256.2" y="361.6" textLength="12.2" clip-path="url(#terminal-4270295366-line-14)">│</text><text class="terminal-4270295366-r5" x="292.8" y="361.6" textLength="109.8" clip-path="url(#terminal-4270295366-line-14)">Remember:</text><text class="terminal-4270295366-r1" x="1342" y="361.6" textLength="12.2" clip-path="url(#terminal-4270295366-line-14)">
</text><text class="terminal-4270295366-r4" x="256.2" y="386" textLength="12.2" clip-path="url(#terminal-4270295366-line-15)">│</text><text class="terminal-4270295366-r2" x="292.8" y="386" textLength="634.4" clip-path="url(#terminal-4270295366-line-15)">&#160;&#160;•&#160;This&#160;tool&#160;is&#160;not&#160;a&#160;substitute&#160;for&#160;legal&#160;counsel.</text><text class="terminal-4270295366-r1" x="1342" y="386" textLength="12.2" clip-path="url(#terminal-4270295366-line-15)">
</text><text class="terminal-4270295366-r4" x="256.2" y="410.4" textLength="12.2" clip-path="url(#terminal-4270295366-line-16)">│</text><text class="terminal-4270295366-r2" x="292.8" y="410.4" textLength="671" clip-path="url(#terminal-4270295366-line-16)">&#160;&#160;&#160;&#160;Talk&#160;to&#160;a&#160;whistleblower&#160;attorney&#160;before&#160;disclosing.</text><text class="terminal-4270295366-r1" x="1342" y="410.4" textLength="12.2" clip-path="url(#terminal-4270295366-line-16)">
</text><text class="terminal-4270295366-r4" x="256.2" y="434.8" textLength="12.2" clip-path="url(#terminal-4270295366-line-17)">│</text><text class="terminal-4270295366-r2" x="292.8" y="434.8" textLength="793" clip-path="url(#terminal-4270295366-line-17)">&#160;&#160;•&#160;If&#160;you&#160;forget&#160;your&#160;passphrase,&#160;no&#160;one&#160;can&#160;recover&#160;your&#160;files.</text><text class="terminal-4270295366-r1" x="1342" y="434.8" textLength="12.2" clip-path="url(#terminal-4270295366-line-17)">
</text><text class="terminal-4270295366-r4" x="256.2" y="459.2" textLength="12.2" clip-path="url(#terminal-4270295366-line-18)">│</text><text class="terminal-4270295366-r2" x="292.8" y="459.2" textLength="719.8" clip-path="url(#terminal-4270295366-line-18)">&#160;&#160;•&#160;SecurKit&#160;protects&#160;files&#160;at&#160;rest.&#160;A&#160;compromised&#160;endpoint</text><text class="terminal-4270295366-r1" x="1342" y="459.2" textLength="12.2" clip-path="url(#terminal-4270295366-line-18)">
</text><text class="terminal-4270295366-r4" x="256.2" y="483.6" textLength="12.2" clip-path="url(#terminal-4270295366-line-19)">│</text><text class="terminal-4270295366-r2" x="292.8" y="483.6" textLength="756.4" clip-path="url(#terminal-4270295366-line-19)">&#160;&#160;&#160;&#160;(keylogger,&#160;screen&#160;capture)&#160;defeats&#160;every&#160;encryption&#160;tool.</text><text class="terminal-4270295366-r1" x="1342" y="483.6" textLength="12.2" clip-path="url(#terminal-4270295366-line-19)">
</text><text class="terminal-4270295366-r4" x="256.2" y="508" textLength="12.2" clip-path="url(#terminal-4270295366-line-20)">│</text><text class="terminal-4270295366-r2" x="292.8" y="508" textLength="658.8" clip-path="url(#terminal-4270295366-line-20)">&#160;&#160;&#160;&#160;For&#160;high-stakes&#160;work&#160;use&#160;Tails&#160;or&#160;a&#160;clean&#160;live&#160;OS.</text><text class="terminal-4270295366-r1" x="1342" y="508" textLength="12.2" clip-path="url(#terminal-4270295366-line-20)">
</text><text class="terminal-4270295366-r4" x="256.2" y="532.4" textLength="12.2" clip-path="url(#terminal-4270295366-line-21)">│</text><text class="terminal-4270295366-r1" x="1342" y="532.4" textLength="12.2" clip-path="url(#terminal-4270295366-line-21)">
</text><text class="terminal-4270295366-r4" x="256.2" y="556.8" textLength="12.2" clip-path="url(#terminal-4270295366-line-22)">│</text><text class="terminal-4270295366-r7" x="292.8" y="556.8" textLength="658.8" clip-path="url(#terminal-4270295366-line-22)">Press&#160;?&#160;at&#160;any&#160;time&#160;to&#160;re-read&#160;the&#160;first-run&#160;briefing.</text><text class="terminal-4270295366-r1" x="1342" y="556.8" textLength="12.2" clip-path="url(#terminal-4270295366-line-22)">
</text><text class="terminal-4270295366-r4" x="256.2" y="581.2" textLength="12.2" clip-path="url(#terminal-4270295366-line-23)">│</text><text class="terminal-4270295366-r1" x="1342" y="581.2" textLength="12.2" clip-path="url(#terminal-4270295366-line-23)">
</text><text class="terminal-4270295366-r4" x="256.2" y="605.6" textLength="12.2" clip-path="url(#terminal-4270295366-line-24)">│</text><text class="terminal-4270295366-r1" x="1342" y="605.6" textLength="12.2" clip-path="url(#terminal-4270295366-line-24)">
</text><text class="terminal-4270295366-r4" x="256.2" y="630" textLength="12.2" clip-path="url(#terminal-4270295366-line-25)">│</text><text class="terminal-4270295366-r1" x="1342" y="630" textLength="12.2" clip-path="url(#terminal-4270295366-line-25)">
</text><text class="terminal-4270295366-r4" x="256.2" y="654.4" textLength="12.2" clip-path="url(#terminal-4270295366-line-26)">│</text><text class="terminal-4270295366-r1" x="1342" y="654.4" textLength="12.2" clip-path="url(#terminal-4270295366-line-26)">
</text><text class="terminal-4270295366-r4" x="256.2" y="678.8" textLength="12.2" clip-path="url(#terminal-4270295366-line-27)">│</text><text class="terminal-4270295366-r1" x="1342" y="678.8" textLength="12.2" clip-path="url(#terminal-4270295366-line-27)">
</text><text class="terminal-4270295366-r4" x="256.2" y="703.2" textLength="12.2" clip-path="url(#terminal-4270295366-line-28)">│</text><text class="terminal-4270295366-r1" x="1342" y="703.2" textLength="12.2" clip-path="url(#terminal-4270295366-line-28)">
</text><text class="terminal-4270295366-r4" x="256.2" y="727.6" textLength="12.2" clip-path="url(#terminal-4270295366-line-29)">│</text><text class="terminal-4270295366-r1" x="1342" y="727.6" textLength="12.2" clip-path="url(#terminal-4270295366-line-29)">
</text><text class="terminal-4270295366-r4" x="256.2" y="752" textLength="12.2" clip-path="url(#terminal-4270295366-line-30)">│</text><text class="terminal-4270295366-r1" x="1342" y="752" textLength="12.2" clip-path="url(#terminal-4270295366-line-30)">
</text><text class="terminal-4270295366-r4" x="256.2" y="776.4" textLength="12.2" clip-path="url(#terminal-4270295366-line-31)">│</text><text class="terminal-4270295366-r1" x="1342" y="776.4" textLength="12.2" clip-path="url(#terminal-4270295366-line-31)">
</text><text class="terminal-4270295366-r4" x="256.2" y="800.8" textLength="12.2" clip-path="url(#terminal-4270295366-line-32)">│</text><text class="terminal-4270295366-r1" x="1342" y="800.8" textLength="12.2" clip-path="url(#terminal-4270295366-line-32)">
</text><text class="terminal-4270295366-r4" x="256.2" y="825.2" textLength="12.2" clip-path="url(#terminal-4270295366-line-33)">│</text><text class="terminal-4270295366-r1" x="1342" y="825.2" textLength="12.2" clip-path="url(#terminal-4270295366-line-33)">
</text><text class="terminal-4270295366-r4" x="256.2" y="849.6" textLength="12.2" clip-path="url(#terminal-4270295366-line-34)">│</text><text class="terminal-4270295366-r1" x="1342" y="849.6" textLength="12.2" clip-path="url(#terminal-4270295366-line-34)">
</text><text class="terminal-4270295366-r8" x="0" y="874" textLength="36.6" clip-path="url(#terminal-4270295366-line-35)">&#160;q&#160;</text><text class="terminal-4270295366-r2" x="36.6" y="874" textLength="61" clip-path="url(#terminal-4270295366-line-35)">Quit&#160;</text><text class="terminal-4270295366-r8" x="97.6" y="874" textLength="36.6" clip-path="url(#terminal-4270295366-line-35)">&#160;?&#160;</text><text class="terminal-4270295366-r2" x="134.2" y="874" textLength="109.8" clip-path="url(#terminal-4270295366-line-35)">Briefing&#160;</text><text class="terminal-4270295366-r9" x="1195.6" y="874" textLength="12.2" clip-path="url(#terminal-4270295366-line-35)">▏</text><text class="terminal-4270295366-r8" x="1207.8" y="874" textLength="24.4" clip-path="url(#terminal-4270295366-line-35)">^p</text><text class="terminal-4270295366-r2" x="1232.2" y="874" textLength="97.6" clip-path="url(#terminal-4270295366-line-35)">&#160;palette</text>
    </g>
    </g>
</svg>
